<?xml version="1.0" encoding="UTF-8" standalone="no"?>
<svg
   height="350"
   width="800"
   version="1.1"
   id="svg424"
   xmlns:xlink="http://www.w3.org/1999/xlink"
   xmlns="http://www.w3.org/2000/svg"
   xmlns:svg="http://www.w3.org/2000/svg">
  <defs
     id="defs204">
    <rect
       x="292.92307"
       y="66.46154"
       width="303.37982"
       height="52.222569"
       id="rect15413" />
    <linearGradient
       id="c">
      <stop
         stop-color="#2d3335"
         offset="0"
         id="stop2" />
      <stop
         stop-color="#4c464a"
         offset=".5"
         id="stop4" />
      <stop
         stop-color="#384042"
         offset="1"
         id="stop6" />
    </linearGradient>
    <linearGradient
       id="a">
      <stop
         offset="0"
         id="stop9" />
      <stop
         stop-opacity="0"
         offset="1"
         id="stop11" />
    </linearGradient>
    <linearGradient
       id="u"
       y2="-179.97"
       xlink:href="#a"
       gradientUnits="userSpaceOnUse"
       x2="9"
       y1="-94.671997"
       x1="94.25" />
    <linearGradient
       id="v"
       y2="-30.438"
       xlink:href="#a"
       gradientUnits="userSpaceOnUse"
       x2="35.75"
       y1="-114.44"
       x1="50.75" />
    <linearGradient
       id="w"
       y2="-74.625"
       xlink:href="#a"
       gradientUnits="userSpaceOnUse"
       x2="115.25"
       y1="-163.12"
       x1="77.625" />
    <linearGradient
       id="x"
       y2="7.0630002"
       xlink:href="#a"
       gradientUnits="userSpaceOnUse"
       x2="125.72"
       y1="-50.438"
       x1="56.5" />
    <linearGradient
       id="y"
       y2="-146.8"
       xlink:href="#a"
       gradientUnits="userSpaceOnUse"
       x2="180.75"
       y1="-163.3"
       x1="35" />
    <linearGradient
       id="z"
       y2="-41.609001"
       xlink:href="#a"
       gradientUnits="userSpaceOnUse"
       x2="179"
       y1="-141.11"
       x1="57" />
    <linearGradient
       id="A"
       y2="39.75"
       xlink:href="#a"
       gradientUnits="userSpaceOnUse"
       x2="208.25"
       y1="-26.5"
       x1="156" />
    <linearGradient
       id="B"
       y2="-77.296997"
       xlink:href="#a"
       gradientUnits="userSpaceOnUse"
       x2="235"
       y1="-169.3"
       x1="142.75" />
    <linearGradient
       id="m"
       y2="-113.72"
       xlink:href="#b"
       gradientUnits="userSpaceOnUse"
       x2="166.5"
       y1="-161.36"
       x1="214.25" />
    <linearGradient
       id="b">
      <stop
         stop-color="#fff"
         offset="0"
         id="stop23" />
      <stop
         stop-color="#fff"
         stop-opacity="0"
         offset="1"
         id="stop25" />
    </linearGradient>
    <linearGradient
       id="n"
       y2="-62.469002"
       xlink:href="#b"
       gradientUnits="userSpaceOnUse"
       x2="57.655998"
       y1="-126.5"
       x1="53.25" />
    <linearGradient
       id="o"
       y2="-17.125"
       xlink:href="#b"
       gradientUnits="userSpaceOnUse"
       x2="75.719002"
       y1="6.625"
       x1="39.5" />
    <linearGradient
       id="p"
       y2="-121.44"
       xlink:href="#b"
       gradientUnits="userSpaceOnUse"
       x2="85.311996"
       y1="-162.34"
       x1="102" />
    <linearGradient
       id="q"
       y2="-14.75"
       xlink:href="#b"
       gradientUnits="userSpaceOnUse"
       x2="63.5"
       y1="-78.094002"
       x1="117.75" />
    <linearGradient
       id="r"
       y2="-60.75"
       xlink:href="#b"
       gradientUnits="userSpaceOnUse"
       x2="133.94"
       y1="-125.12"
       x1="180.69" />
    <linearGradient
       id="s"
       y2="33.375"
       xlink:href="#b"
       gradientUnits="userSpaceOnUse"
       x2="130.22"
       y1="-23.5"
       x1="170.75" />
    <linearGradient
       id="t"
       y2="-5.6560001"
       xlink:href="#b"
       gradientUnits="userSpaceOnUse"
       y1="-76"
       x2="181.75"
       x1="213.5" />
    <linearGradient
       id="l"
       y2="-213.25"
       xlink:href="#a"
       gradientUnits="userSpaceOnUse"
       x2="9"
       gradientTransform="translate(8.6153846,243.38462)"
       y1="72.064003"
       x1="210.17" />
    <linearGradient
       id="M"
       y2="150.38"
       xlink:href="#c"
       gradientUnits="userSpaceOnUse"
       x2="133"
       gradientTransform="matrix(-1,0,0,1,46,0)"
       y1="150.38"
       x1="123" />
    <linearGradient
       id="L"
       y2="143.36"
       xlink:href="#c"
       gradientUnits="userSpaceOnUse"
       x2="130.88"
       gradientTransform="translate(-210)"
       y1="134.36"
       x1="128" />
    <linearGradient
       id="O"
       y2="150.38"
       gradientUnits="userSpaceOnUse"
       y1="150.38"
       gradientTransform="matrix(-2,0,0,1.7699,174,-86.65)"
       x2="133"
       x1="123">
      <stop
         stop-color="#2d3335"
         offset="0"
         id="stop38" />
      <stop
         stop-color="#4c464a"
         offset=".5"
         id="stop40" />
      <stop
         stop-color="#384042"
         offset="1"
         id="stop42" />
    </linearGradient>
    <linearGradient
       id="N"
       y2="186.5"
       gradientUnits="userSpaceOnUse"
       x2="136"
       gradientTransform="translate(-210)"
       y1="186.5"
       x1="120">
      <stop
         stop-color="#f9e295"
         offset="0"
         id="stop45" />
      <stop
         stop-color="#f7dd84"
         offset=".125"
         id="stop47" />
      <stop
         stop-color="#fff"
         offset=".206"
         id="stop49" />
      <stop
         stop-color="#f4ce51"
         offset=".301"
         id="stop51" />
      <stop
         stop-color="#f9e7aa"
         offset=".341"
         id="stop53" />
      <stop
         stop-color="#efbb0e"
         offset="1"
         id="stop55" />
    </linearGradient>
    <linearGradient
       id="P"
       y2="186.5"
       gradientUnits="userSpaceOnUse"
       y1="186.5"
       gradientTransform="translate(-210,67)"
       x2="136"
       x1="120">
      <stop
         stop-color="#f9e295"
         offset="0"
         id="stop58" />
      <stop
         stop-color="#f7dd84"
         offset=".125"
         id="stop60" />
      <stop
         stop-color="#fff"
         offset=".206"
         id="stop62" />
      <stop
         stop-color="#f4ce51"
         offset=".301"
         id="stop64" />
      <stop
         stop-color="#f9e7aa"
         offset=".341"
         id="stop66" />
      <stop
         stop-color="#efbb0e"
         offset="1"
         id="stop68" />
    </linearGradient>
    <linearGradient
       id="J"
       y2="186.5"
       gradientUnits="userSpaceOnUse"
       x2="136"
       gradientTransform="matrix(0.98427143,0.98427143,-0.98427143,0.98427143,75.607023,2.168494)"
       y1="186.5"
       x1="120">
      <stop
         stop-color="#f9e295"
         offset="0"
         id="stop71" />
      <stop
         stop-color="#f7dd84"
         offset=".125"
         id="stop73" />
      <stop
         stop-color="#fff"
         offset=".206"
         id="stop75" />
      <stop
         stop-color="#f4ce51"
         offset=".301"
         id="stop77" />
      <stop
         stop-color="#f9e7aa"
         offset=".341"
         id="stop79" />
      <stop
         stop-color="#efbb0e"
         offset="1"
         id="stop81" />
    </linearGradient>
    <linearGradient
       id="U"
       y2="150.38"
       gradientUnits="userSpaceOnUse"
       x2="133"
       gradientTransform="matrix(-1.9685146,-1.9685146,-1.742099,1.742099,604.80802,228.8957)"
       y1="150.38"
       x1="123">
      <stop
         stop-color="#2d3335"
         offset="0"
         id="stop84" />
      <stop
         stop-color="#4c464a"
         offset=".5"
         id="stop86" />
      <stop
         stop-color="#384042"
         offset="1"
         id="stop88" />
    </linearGradient>
    <linearGradient
       id="T"
       y2="186.5"
       gradientUnits="userSpaceOnUse"
       x2="136"
       gradientTransform="matrix(0.98427143,0.98427143,-0.98427143,0.98427143,141.55498,-63.775975)"
       y1="186.5"
       x1="120">
      <stop
         stop-color="#f9e295"
         offset="0"
         id="stop91" />
      <stop
         stop-color="#f7dd84"
         offset=".125"
         id="stop93" />
      <stop
         stop-color="#fff"
         offset=".206"
         id="stop95" />
      <stop
         stop-color="#f4ce51"
         offset=".301"
         id="stop97" />
      <stop
         stop-color="#f9e7aa"
         offset=".341"
         id="stop99" />
      <stop
         stop-color="#efbb0e"
         offset="1"
         id="stop101" />
    </linearGradient>
    <linearGradient
       id="S"
       y2="150.38"
       xlink:href="#c"
       gradientUnits="userSpaceOnUse"
       x2="133"
       gradientTransform="matrix(-0.98427143,-0.98427143,-0.98427143,0.98427143,393.52548,188.19481)"
       y1="150.38"
       x1="123" />
    <linearGradient
       id="R"
       y2="143.36"
       xlink:href="#c"
       gradientUnits="userSpaceOnUse"
       x2="130.88"
       gradientTransform="matrix(0.98427143,0.98427143,-0.98427143,0.98427143,141.55498,-63.775975)"
       y1="134.36"
       x1="128" />
    <linearGradient
       id="V"
       y2="150.38"
       xlink:href="#a"
       gradientUnits="userSpaceOnUse"
       y1="167.73"
       gradientTransform="matrix(-1.9685146,-1.9685146,-1.742099,1.742099,604.80802,228.8957)"
       x2="133"
       x1="108" />
    <linearGradient
       id="W"
       y2="137.2"
       gradientUnits="userSpaceOnUse"
       x2="179.96001"
       gradientTransform="translate(8.6153846,51.384615)"
       y1="29.815001"
       x1="126.64">
      <stop
         stop-color="#fff"
         offset="0"
         id="stop107" />
      <stop
         stop-color="#fff"
         stop-opacity="0"
         offset="1"
         id="stop109" />
    </linearGradient>
    <linearGradient
       id="Z"
       y2="137.2"
       gradientUnits="userSpaceOnUse"
       y1="29.815001"
       gradientTransform="matrix(-0.50295,0.1984,0.1972,-0.43254,284.77538,184.80462)"
       x2="179.96001"
       x1="126.64">
      <stop
         stop-color="#fff"
         offset="0"
         id="stop112" />
      <stop
         stop-color="#fff"
         stop-opacity="0"
         offset="1"
         id="stop114" />
    </linearGradient>
    <linearGradient
       id="G"
       y2="-213.25"
       gradientUnits="userSpaceOnUse"
       x2="9"
       gradientTransform="translate(0,192)"
       y1="72.064003"
       x1="210.17">
      <stop
         offset="0"
         id="stop117" />
      <stop
         stop-opacity="0"
         offset="1"
         id="stop119" />
    </linearGradient>
    <linearGradient
       id="h"
       y2="4.302"
       gradientUnits="userSpaceOnUse"
       x2="122"
       y1="245.45"
       x1="122">
      <stop
         offset="0"
         id="stop122" />
      <stop
         stop-opacity="0"
         offset="1"
         id="stop124" />
    </linearGradient>
    <linearGradient
       id="e"
       y2="-213.25"
       gradientUnits="userSpaceOnUse"
       x2="9"
       gradientTransform="matrix(1,-0.08088,0,1,0,203.06)"
       y1="72.064003"
       x1="210.17">
      <stop
         offset="0"
         id="stop127" />
      <stop
         stop-opacity="0"
         offset="1"
         id="stop129" />
    </linearGradient>
    <clipPath
       id="j"
       clipPathUnits="userSpaceOnUse">
      <path
         fill="#ceeeab"
         d="m 9,12.25 c 0,0 7.5,13 11.75,27.75 C 25,54.75 27,65.5 27,65.5 c 0,0 -5.5,12.75 -8.25,24.75 -2.75,12 -5.75,23 -5.75,23 0,0 5.75,16 9.25,30 3.5,14 3.75,24.25 3.75,24.25 0,0 -4,10.25 -7.5,24.25 -3.5,14 -5,30.75 -5,30.75 0,0 9.25,-2 28.5,1.25 19.25,3.25 32.25,6 32.25,6 0,0 12.75,-2.75 24,-6.25 11.25,-3.5 16.25,-6.5 16.25,-6.5 0,0 5.5,0.5 22.5,6.25 17,5.75 29.25,8.5 29.25,8.5 0,0 13,-2.75 26,-5.75 13,-3 26.5,-8 26.5,-8 0,0 -0.75,-5 4.25,-24.5 5,-19.5 8.75,-28 8.75,-28 0,0 -0.5,-4.5 -3.75,-19.75 C 224.75,130.5 218,116 218,116 c 0,0 1.75,-10.5 6.75,-23.75 C 229.75,79 235,65.5 235,65.5 c 0,0 -4.75,-15.25 -7.5,-29.75 C 224.75,21.25 219.25,10 219.25,10 c 0,0 -24.25,9 -31.75,10.5 -7.5,1.5 -21,5.25 -21,5.25 0,0 -9.75,-4.25 -22,-8.5 -12.25,-4.25 -29.75,-5.5 -29.75,-5.5 0,0 -3.25,3.5 -22,8 -18.75,4.5 -27.5,5.75 -27.5,5.75 0,0 -18.5,-9 -31.5,-11.5 -13,-2.5 -24,-2 -24.75,-1.75 z"
         id="path132" />
    </clipPath>
    <clipPath
       id="k"
       clipPathUnits="userSpaceOnUse">
      <path
         fill="#ceeeab"
         d="m 9,12.25 c 0,0 7.5,13 11.75,27.75 C 25,54.75 27,65.5 27,65.5 c 0,0 -5.5,12.75 -8.25,24.75 -2.75,12 -5.75,23 -5.75,23 0,0 5.75,16 9.25,30 3.5,14 3.75,24.25 3.75,24.25 0,0 -4,10.25 -7.5,24.25 -3.5,14 -5,30.75 -5,30.75 0,0 9.25,-2 28.5,1.25 19.25,3.25 32.25,6 32.25,6 0,0 12.75,-2.75 24,-6.25 11.25,-3.5 16.25,-6.5 16.25,-6.5 0,0 5.5,0.5 22.5,6.25 17,5.75 29.25,8.5 29.25,8.5 0,0 13,-2.75 26,-5.75 13,-3 26.5,-8 26.5,-8 0,0 -0.75,-5 4.25,-24.5 5,-19.5 8.75,-28 8.75,-28 0,0 -0.5,-4.5 -3.75,-19.75 C 224.75,130.5 218,116 218,116 c 0,0 1.75,-10.5 6.75,-23.75 C 229.75,79 235,65.5 235,65.5 c 0,0 -4.75,-15.25 -7.5,-29.75 C 224.75,21.25 219.25,10 219.25,10 c 0,0 -24.25,9 -31.75,10.5 -7.5,1.5 -21,5.25 -21,5.25 0,0 -9.75,-4.25 -22,-8.5 -12.25,-4.25 -29.75,-5.5 -29.75,-5.5 0,0 -3.25,3.5 -22,8 -18.75,4.5 -27.5,5.75 -27.5,5.75 0,0 -18.5,-9 -31.5,-11.5 -13,-2.5 -24,-2 -24.75,-1.75 z"
         id="path135" />
    </clipPath>
    <clipPath
       id="i"
       clipPathUnits="userSpaceOnUse">
      <path
         fill="#ceeeab"
         d="m 9,12.25 c 0,0 7.5,13 11.75,27.75 C 25,54.75 27,65.5 27,65.5 c 0,0 -5.5,12.75 -8.25,24.75 -2.75,12 -5.75,23 -5.75,23 0,0 5.75,16 9.25,30 3.5,14 3.75,24.25 3.75,24.25 0,0 -4,10.25 -7.5,24.25 -3.5,14 -5,30.75 -5,30.75 0,0 9.25,-2 28.5,1.25 19.25,3.25 32.25,6 32.25,6 0,0 12.75,-2.75 24,-6.25 11.25,-3.5 16.25,-6.5 16.25,-6.5 0,0 5.5,0.5 22.5,6.25 17,5.75 29.25,8.5 29.25,8.5 0,0 13,-2.75 26,-5.75 13,-3 26.5,-8 26.5,-8 0,0 -0.75,-5 4.25,-24.5 5,-19.5 8.75,-28 8.75,-28 0,0 -0.5,-4.5 -3.75,-19.75 C 224.75,130.5 218,116 218,116 c 0,0 1.75,-10.5 6.75,-23.75 C 229.75,79 235,65.5 235,65.5 c 0,0 -4.75,-15.25 -7.5,-29.75 C 224.75,21.25 219.25,10 219.25,10 c 0,0 -24.25,9 -31.75,10.5 -7.5,1.5 -21,5.25 -21,5.25 0,0 -9.75,-4.25 -22,-8.5 -12.25,-4.25 -29.75,-5.5 -29.75,-5.5 0,0 -3.25,3.5 -22,8 -18.75,4.5 -27.5,5.75 -27.5,5.75 0,0 -18.5,-9 -31.5,-11.5 -13,-2.5 -24,-2 -24.75,-1.75 z"
         id="path138" />
    </clipPath>
    <clipPath
       id="D"
       clipPathUnits="userSpaceOnUse">
      <path
         fill="#ceeeab"
         d="m 9,12.25 c 0,0 7.5,13 11.75,27.75 C 25,54.75 27,65.5 27,65.5 c 0,0 -5.5,12.75 -8.25,24.75 -2.75,12 -5.75,23 -5.75,23 0,0 5.75,16 9.25,30 3.5,14 3.75,24.25 3.75,24.25 0,0 -4,10.25 -7.5,24.25 -3.5,14 -5,30.75 -5,30.75 0,0 9.25,-2 28.5,1.25 19.25,3.25 32.25,6 32.25,6 0,0 12.75,-2.75 24,-6.25 11.25,-3.5 16.25,-6.5 16.25,-6.5 0,0 5.5,0.5 22.5,6.25 17,5.75 29.25,8.5 29.25,8.5 0,0 13,-2.75 26,-5.75 13,-3 26.5,-8 26.5,-8 0,0 -0.75,-5 4.25,-24.5 5,-19.5 8.75,-28 8.75,-28 0,0 -0.5,-4.5 -3.75,-19.75 C 224.75,130.5 218,116 218,116 c 0,0 1.75,-10.5 6.75,-23.75 C 229.75,79 235,65.5 235,65.5 c 0,0 -4.75,-15.25 -7.5,-29.75 C 224.75,21.25 219.25,10 219.25,10 c 0,0 -24.25,9 -31.75,10.5 -7.5,1.5 -21,5.25 -21,5.25 0,0 -9.75,-4.25 -22,-8.5 -12.25,-4.25 -29.75,-5.5 -29.75,-5.5 0,0 -3.25,3.5 -22,8 -18.75,4.5 -27.5,5.75 -27.5,5.75 0,0 -18.5,-9 -31.5,-11.5 -13,-2.5 -24,-2 -24.75,-1.75 z"
         id="path141" />
    </clipPath>
    <clipPath
       id="E"
       clipPathUnits="userSpaceOnUse">
      <path
         fill="#ceeeab"
         d="m 9,12.25 c 0,0 7.5,13 11.75,27.75 C 25,54.75 27,65.5 27,65.5 c 0,0 -5.5,12.75 -8.25,24.75 -2.75,12 -5.75,23 -5.75,23 0,0 5.75,16 9.25,30 3.5,14 3.75,24.25 3.75,24.25 0,0 -4,10.25 -7.5,24.25 -3.5,14 -5,30.75 -5,30.75 0,0 9.25,-2 28.5,1.25 19.25,3.25 32.25,6 32.25,6 0,0 12.75,-2.75 24,-6.25 11.25,-3.5 16.25,-6.5 16.25,-6.5 0,0 5.5,0.5 22.5,6.25 17,5.75 29.25,8.5 29.25,8.5 0,0 13,-2.75 26,-5.75 13,-3 26.5,-8 26.5,-8 0,0 -0.75,-5 4.25,-24.5 5,-19.5 8.75,-28 8.75,-28 0,0 -0.5,-4.5 -3.75,-19.75 C 224.75,130.5 218,116 218,116 c 0,0 1.75,-10.5 6.75,-23.75 C 229.75,79 235,65.5 235,65.5 c 0,0 -4.75,-15.25 -7.5,-29.75 C 224.75,21.25 219.25,10 219.25,10 c 0,0 -24.25,9 -31.75,10.5 -7.5,1.5 -21,5.25 -21,5.25 0,0 -9.75,-4.25 -22,-8.5 -12.25,-4.25 -29.75,-5.5 -29.75,-5.5 0,0 -3.25,3.5 -22,8 -18.75,4.5 -27.5,5.75 -27.5,5.75 0,0 -18.5,-9 -31.5,-11.5 -13,-2.5 -24,-2 -24.75,-1.75 z"
         id="path144" />
    </clipPath>
    <clipPath
       id="F"
       clipPathUnits="userSpaceOnUse">
      <path
         fill="#ceeeab"
         d="m 9,12.25 c 0,0 7.5,13 11.75,27.75 C 25,54.75 27,65.5 27,65.5 c 0,0 -5.5,12.75 -8.25,24.75 -2.75,12 -5.75,23 -5.75,23 0,0 5.75,16 9.25,30 3.5,14 3.75,24.25 3.75,24.25 0,0 -4,10.25 -7.5,24.25 -3.5,14 -5,30.75 -5,30.75 0,0 9.25,-2 28.5,1.25 19.25,3.25 32.25,6 32.25,6 0,0 12.75,-2.75 24,-6.25 11.25,-3.5 16.25,-6.5 16.25,-6.5 0,0 5.5,0.5 22.5,6.25 17,5.75 29.25,8.5 29.25,8.5 0,0 13,-2.75 26,-5.75 13,-3 26.5,-8 26.5,-8 0,0 -0.75,-5 4.25,-24.5 5,-19.5 8.75,-28 8.75,-28 0,0 -0.5,-4.5 -3.75,-19.75 C 224.75,130.5 218,116 218,116 c 0,0 1.75,-10.5 6.75,-23.75 C 229.75,79 235,65.5 235,65.5 c 0,0 -4.75,-15.25 -7.5,-29.75 C 224.75,21.25 219.25,10 219.25,10 c 0,0 -24.25,9 -31.75,10.5 -7.5,1.5 -21,5.25 -21,5.25 0,0 -9.75,-4.25 -22,-8.5 -12.25,-4.25 -29.75,-5.5 -29.75,-5.5 0,0 -3.25,3.5 -22,8 -18.75,4.5 -27.5,5.75 -27.5,5.75 0,0 -18.5,-9 -31.5,-11.5 -13,-2.5 -24,-2 -24.75,-1.75 z"
         id="path147" />
    </clipPath>
    <clipPath
       id="C"
       clipPathUnits="userSpaceOnUse">
      <path
         d="m 123.62,141.06 c 20.832,20.243 54.607,19.289 75.439,-2.132 20.832,-21.421 20.832,-55.196 0,-75.439 -20.832,-20.243 -54.607,-19.289 -75.439,2.132 -20.832,21.421 -20.832,55.196 0,75.439 z"
         fill="url(#d)"
         id="path150" />
    </clipPath>
    <clipPath
       id="H"
       clipPathUnits="userSpaceOnUse">
      <path
         opacity="0.039"
         d="m 9,22.578 c 0,0 7.5,12.393 11.75,26.8 C 25,63.784 27,74.373 27,74.373 c 0,0 -5.5,13.195 -8.25,25.417 C 16,112.01 13,123.25 13,123.25 c 0,0 5.75,15.535 9.25,29.252 3.5,13.717 3.75,23.947 3.75,23.947 0,0 -4,10.574 -7.5,24.857 -3.5,14.283 -5,31.154 -5,31.154 0,0 9.25,-2.748 28.5,-1.055 19.25,1.693 32.25,3.392 32.25,3.392 0,0 12.75,-3.782 24,-8.191 11.25,-4.409 16.25,-7.815 16.25,-7.815 0,0 5.5,0.055 22.5,4.43 17,4.376 29.25,6.135 29.25,6.135 0,0 13,-3.802 26,-7.853 13,-4.051 26.5,-10.143 26.5,-10.143 0,0 -0.75,-4.94 4.25,-24.844 5,-19.904 8.75,-28.708 8.75,-28.708 0,0 -0.514,-4.455 -3.75,-19.447 -1.75,-8.108 -2.25,-4.068 -2.25,-4.068 0,0 16.264,-26.155 16.5,-40.334 C 242.5,78.939 235,57.546 235,57.546 c 0,0 -4.75,-14.866 -7.5,-29.143 -2.75,-14.278 -8.25,-25.083 -8.25,-25.083 0,0 -24.25,10.961 -31.75,13.068 -7.5,2.107 -21,6.948 -21,6.948 0,0 -9.75,-3.461 -22,-6.72 -12.25,-3.26 -29.75,-3.094 -29.75,-3.094 0,0 -3.25,3.763 -22,9.78 -18.75,6.016 -27.5,7.973 -27.5,7.973 0,0 -18.5,-7.504 -31.5,-8.952 -13,-1.448 -24,-0.06 -24.75,0.252 z"
         fill="url(#e)"
         id="path153" />
    </clipPath>
    <radialGradient
       id="K"
       gradientUnits="userSpaceOnUse"
       cy="86"
       cx="128"
       gradientTransform="matrix(1.0213,0,0,-1.0213,-212.72,173.83)"
       r="47">
      <stop
         stop-color="#d0e9f2"
         stop-opacity="0"
         offset="0"
         id="stop156" />
      <stop
         stop-color="#d0e9f2"
         stop-opacity="0"
         offset=".839"
         id="stop158" />
      <stop
         stop-color="#d0e9f2"
         stop-opacity=".282"
         offset=".943"
         id="stop160" />
      <stop
         stop-color="#d0e9f2"
         offset="1"
         id="stop162" />
    </radialGradient>
    <radialGradient
       id="Q"
       gradientUnits="userSpaceOnUse"
       cy="86"
       cx="128"
       gradientTransform="matrix(1.005223,1.005223,1.005223,-1.005223,-32.223393,104.6381)"
       r="47">
      <stop
         stop-color="#d0e9f2"
         stop-opacity="0"
         offset="0"
         id="stop165" />
      <stop
         stop-color="#d0e9f2"
         stop-opacity="0"
         offset=".839"
         id="stop167" />
      <stop
         stop-color="#d0e9f2"
         stop-opacity=".282"
         offset=".943"
         id="stop169" />
      <stop
         stop-color="#d0e9f2"
         offset="1"
         id="stop171" />
    </radialGradient>
    <radialGradient
       id="Y"
       gradientUnits="userSpaceOnUse"
       cy="72.587997"
       cx="159.61"
       gradientTransform="matrix(1.2125,0,0,0.83915,-47.333186,86.506429)"
       r="38.417">
      <stop
         stop-color="#fff"
         offset="0"
         id="stop174" />
      <stop
         stop-color="#fff"
         stop-opacity=".93"
         offset=".5"
         id="stop176" />
      <stop
         stop-color="#fff"
         stop-opacity="0"
         offset="1"
         id="stop178" />
    </radialGradient>
    <radialGradient
       id="X"
       gradientUnits="userSpaceOnUse"
       cx="159.61"
       cy="72.587997"
       r="38.417"
       gradientTransform="matrix(1.2125,0,0,0.83915,-46.905186,87.792429)">
      <stop
         stop-color="#fff"
         offset="0"
         id="stop181" />
      <stop
         stop-color="#fff"
         stop-opacity="0"
         offset="1"
         id="stop183" />
    </radialGradient>
    <radialGradient
       id="d"
       gradientUnits="userSpaceOnUse"
       cy="86"
       cx="128"
       gradientTransform="matrix(0.80254,0.77986,0.80254,-0.82522,-10.402,73.423)"
       r="47">
      <stop
         stop-color="#d0e9f2"
         stop-opacity="0"
         offset="0"
         id="stop186" />
      <stop
         stop-color="#d0e9f2"
         stop-opacity="0"
         offset=".839"
         id="stop188" />
      <stop
         stop-color="#d0e9f2"
         stop-opacity=".282"
         offset=".943"
         id="stop190" />
      <stop
         stop-color="#d0e9f2"
         offset="1"
         id="stop192" />
    </radialGradient>
    <filter
       id="I"
       x="-0.04800092"
       y="-0.048001122"
       width="1.0960018"
       height="1.0960022">
      <feGaussianBlur
         stdDeviation="4.287"
         id="feGaussianBlur195" />
    </filter>
    <filter
       id="f"
       x="-0.070663352"
       y="-0.070663648"
       width="1.1413267"
       height="1.1413273">
      <feGaussianBlur
         stdDeviation="6.311"
         id="feGaussianBlur198" />
    </filter>
    <filter
       id="g"
       x="-0.047330971"
       y="-0.048677131"
       width="1.0946619"
       height="1.0973543">
      <feGaussianBlur
         stdDeviation="4.457"
         id="feGaussianBlur201" />
    </filter>
    <linearGradient
       xlink:href="#b"
       id="linearGradient103987"
       gradientUnits="userSpaceOnUse"
       x1="214.25"
       y1="-161.36"
       x2="166.5"
       y2="-113.72" />
    <linearGradient
       xlink:href="#b"
       id="linearGradient103989"
       gradientUnits="userSpaceOnUse"
       x1="53.25"
       y1="-126.5"
       x2="57.655998"
       y2="-62.469002" />
    <linearGradient
       xlink:href="#b"
       id="linearGradient103991"
       gradientUnits="userSpaceOnUse"
       x1="39.5"
       y1="6.625"
       x2="75.719002"
       y2="-17.125" />
    <linearGradient
       xlink:href="#b"
       id="linearGradient103993"
       gradientUnits="userSpaceOnUse"
       x1="102"
       y1="-162.34"
       x2="85.311996"
       y2="-121.44" />
    <linearGradient
       xlink:href="#b"
       id="linearGradient103995"
       gradientUnits="userSpaceOnUse"
       x1="117.75"
       y1="-78.094002"
       x2="63.5"
       y2="-14.75" />
    <linearGradient
       xlink:href="#b"
       id="linearGradient103997"
       gradientUnits="userSpaceOnUse"
       x1="180.69"
       y1="-125.12"
       x2="133.94"
       y2="-60.75" />
    <linearGradient
       xlink:href="#b"
       id="linearGradient103999"
       gradientUnits="userSpaceOnUse"
       x1="170.75"
       y1="-23.5"
       x2="130.22"
       y2="33.375" />
    <linearGradient
       xlink:href="#b"
       id="linearGradient104001"
       gradientUnits="userSpaceOnUse"
       x1="213.5"
       y1="-76"
       x2="181.75"
       y2="-5.6560001" />
    <linearGradient
       xlink:href="#a"
       id="linearGradient104003"
       gradientUnits="userSpaceOnUse"
       x1="94.25"
       y1="-94.671997"
       x2="9"
       y2="-179.97" />
    <linearGradient
       xlink:href="#a"
       id="linearGradient104005"
       gradientUnits="userSpaceOnUse"
       x1="50.75"
       y1="-114.44"
       x2="35.75"
       y2="-30.438" />
    <linearGradient
       xlink:href="#a"
       id="linearGradient104007"
       gradientUnits="userSpaceOnUse"
       x1="77.625"
       y1="-163.12"
       x2="115.25"
       y2="-74.625" />
    <linearGradient
       xlink:href="#a"
       id="linearGradient104009"
       gradientUnits="userSpaceOnUse"
       x1="56.5"
       y1="-50.438"
       x2="125.72"
       y2="7.0630002" />
    <linearGradient
       xlink:href="#a"
       id="linearGradient104011"
       gradientUnits="userSpaceOnUse"
       x1="35"
       y1="-163.3"
       x2="180.75"
       y2="-146.8" />
    <linearGradient
       xlink:href="#a"
       id="linearGradient104013"
       gradientUnits="userSpaceOnUse"
       x1="57"
       y1="-141.11"
       x2="179"
       y2="-41.609001" />
    <linearGradient
       xlink:href="#a"
       id="linearGradient104015"
       gradientUnits="userSpaceOnUse"
       x1="156"
       y1="-26.5"
       x2="208.25"
       y2="39.75" />
    <linearGradient
       xlink:href="#a"
       id="linearGradient104017"
       gradientUnits="userSpaceOnUse"
       x1="142.75"
       y1="-169.3"
       x2="235"
       y2="-77.296997" />
  </defs>
  <path
     opacity="0.7"
     d="m 174.28,35.875 c -17.6,0 -35.19,6.639 -48.72,19.906 -0.16,0.164 -0.33,0.303 -0.5,0.469 -22.05,22.056 -26.206,55.25 -12.47,81.5 l -2.28,1.63 c 2.25,4.23 4.94,8.3 8.1,12.12 l -13.32,13.34 c -1.34,-0.58 -2.78,-1.03 -4.56,-1.37 l -2.842,2.84 c -1.11,-0.48 -2.139,-0.81 -3.063,-0.87 L 30.5,229.56 c -0.037,1.1 0.226,2.19 0.656,3.28 l -0.531,0.54 -1.094,1.09 c 0.716,3.74 2.011,6.82 5.469,10.28 3.458,3.46 6.42,4.63 10.281,5.47 l 1.094,-1.1 0.719,-0.71 c 1.088,0.46 2.13,0.78 3.094,0.84 l 64.122,-64.13 c -0.24,-0.97 -0.62,-1.93 -1.03,-2.9 l 3,-3 c -0.25,-1.73 -0.68,-3.2 -1.31,-4.6 l 13.28,-13.28 c 3.82,3.16 7.89,5.85 12.13,8.1 l 1.62,-2.28 c 26.25,13.74 59.44,9.58 81.5,-12.47 0.17,-0.17 0.31,-0.34 0.47,-0.5 C 250.66,126.97 250.52,83.267 223.5,56.25 209.91,42.66 192.09,35.875 174.28,35.875 Z m -0.5,3.281 c 0.11,0.002 0.21,-0.002 0.31,0 a 67.89,67.89 0 0 1 5.72,0.375 c 0.1,0.01 0.19,0.021 0.28,0.031 l 0.29,0.032 c 0.14,0.017 0.29,0.044 0.43,0.062 0.9,0.11 1.8,0.228 2.69,0.375 0.62,0.102 1.23,0.224 1.84,0.344 0.35,0.066 0.69,0.116 1.04,0.187 0.72,0.153 1.43,0.324 2.15,0.5 0.31,0.077 0.63,0.138 0.94,0.219 0.07,0.019 0.14,0.043 0.22,0.063 0.95,0.253 1.89,0.516 2.84,0.812 0.07,0.023 0.15,0.04 0.22,0.063 0.95,0.3 1.91,0.625 2.84,0.969 0.06,0.019 0.11,0.042 0.16,0.062 0.95,0.352 1.9,0.728 2.84,1.125 0.06,0.022 0.11,0.041 0.16,0.063 0.94,0.4 1.88,0.836 2.81,1.281 l 0.13,0.062 c 0.93,0.451 1.86,0.91 2.78,1.407 0.03,0.017 0.06,0.044 0.09,0.062 0.93,0.503 1.84,1.013 2.75,1.562 0.03,0.02 0.06,0.044 0.1,0.063 0.9,0.551 1.8,1.122 2.68,1.719 0.55,0.369 1.09,0.769 1.63,1.156 0.36,0.261 0.73,0.512 1.09,0.781 0.02,0.014 0.05,0.018 0.06,0.031 0.88,0.656 1.75,1.36 2.6,2.063 a 70.875,70.875 0 0 1 5.06,4.594 c 1.62,1.62 3.14,3.3 4.56,5.031 0.01,0.011 0.03,0.02 0.03,0.031 0.71,0.855 1.41,1.715 2.07,2.594 0.28,0.379 0.54,0.773 0.81,1.156 0.37,0.517 0.74,1.038 1.09,1.563 0.02,0.024 0.05,0.038 0.07,0.062 0.59,0.89 1.16,1.778 1.71,2.688 0.02,0.032 0.05,0.061 0.07,0.094 a 75.45,75.45 0 0 1 1.56,2.75 c 0.02,0.032 0.04,0.06 0.06,0.093 0.5,0.921 0.96,1.844 1.41,2.781 l 0.06,0.126 c 0.45,0.929 0.88,1.868 1.28,2.812 l 0.06,0.156 c 0.4,0.936 0.78,1.895 1.13,2.844 l 0.06,0.156 c 0.35,0.949 0.67,1.885 0.97,2.844 l 0.06,0.219 c 0.3,0.941 0.56,1.894 0.82,2.843 l 0.06,0.219 c 0.08,0.31 0.14,0.627 0.22,0.938 0.17,0.72 0.35,1.432 0.5,2.156 0.07,0.342 0.12,0.688 0.18,1.031 0.12,0.617 0.25,1.225 0.35,1.844 0.15,0.893 0.26,1.791 0.37,2.688 0.02,0.145 0.05,0.291 0.07,0.437 l 0.03,0.281 0.03,0.282 c 0.1,0.952 0.19,1.912 0.25,2.872 0.06,0.94 0.11,1.9 0.12,2.85 0.01,0.1 0,0.2 0,0.31 0.02,1.05 0.01,2.1 -0.03,3.15 -0.03,0.94 -0.08,1.86 -0.15,2.79 -0.01,0.12 -0.02,0.25 -0.04,0.37 -0.07,0.92 -0.16,1.84 -0.28,2.75 -0.12,0.96 -0.27,1.93 -0.43,2.88 -0.02,0.08 -0.02,0.16 -0.04,0.25 -0.02,0.12 -0.03,0.25 -0.06,0.37 -0.16,0.91 -0.36,1.82 -0.56,2.72 -0.03,0.13 -0.06,0.27 -0.09,0.41 a 86.1,86.1 0 0 1 -0.69,2.65 c -0.17,0.59 -0.35,1.17 -0.53,1.75 -0.18,0.57 -0.34,1.13 -0.53,1.69 -0.3,0.86 -0.61,1.71 -0.94,2.56 -0.06,0.16 -0.13,0.32 -0.19,0.47 -0.04,0.11 -0.08,0.23 -0.12,0.34 -0.36,0.88 -0.73,1.73 -1.13,2.6 -0.38,0.82 -0.77,1.63 -1.19,2.44 -0.08,0.15 -0.16,0.31 -0.25,0.46 -0.41,0.8 -0.83,1.6 -1.28,2.38 -0.09,0.17 -0.18,0.34 -0.28,0.5 -0.2,0.34 -0.42,0.66 -0.62,1 -0.37,0.59 -0.75,1.17 -1.13,1.75 0,0.01 0.01,0.02 0,0.03 -0.49,0.75 -1,1.49 -1.53,2.22 -0.46,0.64 -0.95,1.25 -1.44,1.87 -0.19,0.26 -0.36,0.53 -0.56,0.79 l -0.41,0.5 c -0.16,0.2 -0.33,0.39 -0.5,0.59 -0.55,0.67 -1.13,1.32 -1.72,1.97 -0.6,0.67 -1.23,1.35 -1.87,2 -0.16,0.16 -0.31,0.34 -0.47,0.5 -21.13,21.13 -52.26,24.49 -77.19,11.15 l 0.13,-0.18 c -3.71,-1.9 -7.26,-4.14 -10.63,-6.78 -0.54,-0.43 -1.06,-0.87 -1.59,-1.32 -0.51,-0.43 -1.03,-0.86 -1.53,-1.31 -0.09,-0.08 -0.19,-0.16 -0.28,-0.25 a 86.97,86.97 0 0 1 -2.41,-2.31 c -0.79,-0.8 -1.56,-1.59 -2.31,-2.41 -0.09,-0.09 -0.17,-0.19 -0.25,-0.28 -0.45,-0.5 -0.88,-1.02 -1.31,-1.53 -0.45,-0.53 -0.89,-1.05 -1.32,-1.59 a 65.831,65.831 0 0 1 -6.78,-10.63 l -0.19,0.13 c -13.33,-24.93 -9.97,-56.061 11.16,-77.191 0.16,-0.163 0.34,-0.308 0.5,-0.469 0.65,-0.64 1.33,-1.269 2,-1.875 0.65,-0.588 1.3,-1.162 1.97,-1.719 0.27,-0.227 0.54,-0.465 0.81,-0.687 0.35,-0.278 0.72,-0.512 1.06,-0.782 0.63,-0.483 1.24,-0.98 1.88,-1.437 0.74,-0.53 1.5,-1.036 2.25,-1.531 0.58,-0.383 1.16,-0.764 1.75,-1.125 0.45,-0.274 0.89,-0.551 1.34,-0.813 0.69,-0.395 1.37,-0.757 2.07,-1.125 a 61.343,61.343 0 0 1 3.37,-1.687 c 0.87,-0.397 1.72,-0.769 2.59,-1.125 0.16,-0.062 0.32,-0.096 0.47,-0.157 0.97,-0.384 1.93,-0.758 2.91,-1.093 0.56,-0.192 1.12,-0.356 1.69,-0.532 0.58,-0.181 1.16,-0.367 1.75,-0.531 0.88,-0.246 1.77,-0.48 2.65,-0.687 0.07,-0.017 0.15,-0.015 0.22,-0.032 0.42,-0.095 0.84,-0.193 1.25,-0.281 0.67,-0.141 1.36,-0.287 2.03,-0.406 0.09,-0.015 0.17,-0.017 0.25,-0.031 0.95,-0.164 1.92,-0.317 2.88,-0.438 a 65.183,65.183 0 0 1 9.06,-0.5 z"
     transform="matrix(1,0.06864,0,0.8487,8.6153846,88.297615)"
     filter="url(#f)"
     fill="#2d3335"
     id="path206" />
  <path
     opacity="0.5"
     d="m 9,17.25 c 0,0 7.5,11 11.75,25.75 C 25,57.75 27,68.5 27,68.5 c 0,0 -5.5,12.75 -8.25,24.75 -2.75,12 -5.75,25 -5.75,25 0,0 5.75,16 9.25,30 3.5,14 3.75,22.25 3.75,22.25 0,0 -4,10.25 -7.5,24.25 -3.5,14 -5,30.75 -5,30.75 0,0 9.25,-2 28.5,1.25 19.25,3.25 32.25,6 32.25,6 0,0 12.75,-2.75 24,-6.25 11.25,-3.5 16.25,-6.5 16.25,-6.5 0,0 5.5,0.5 22.5,6.25 17,5.75 29.25,8.5 29.25,8.5 0,0 13,-2.75 26,-5.75 13,-3 26.5,-8 26.5,-8 0,0 -0.75,-5 4.25,-24.5 5,-19.5 8.75,-28 8.75,-28 0,0 -0.5,-2.5 -3.75,-17.75 C 224.75,135.5 218,121 218,121 c 0,0 1.75,-12.5 6.75,-25.75 C 229.75,82 235,68.5 235,68.5 c 0,0 -4.75,-15.25 -7.5,-29.75 C 224.75,24.25 219.25,15 219.25,15 c 0,0 -24.25,9 -31.75,10.5 -7.5,1.5 -21,5.25 -21,5.25 0,0 -9.75,-4.25 -22,-8.5 -12.25,-4.25 -29.75,-5.5 -29.75,-5.5 0,0 -3.25,3.5 -22,8 -18.75,4.5 -27.5,5.75 -27.5,5.75 0,0 -18.5,-9 -31.5,-11.5 -13,-2.5 -24,-2 -24.75,-1.75 z"
     transform="matrix(1,0,0,0.84657,8.6153846,89.044615)"
     filter="url(#g)"
     fill="url(#h)"
     id="path208"
     style="fill:url(#h)" />
  <path
     fill="#ceeeab"
     d="m 17.615385,63.634615 c 0,0 7.5,13 11.75,27.75 4.25,14.749995 6.25,25.499995 6.25,25.499995 0,0 -5.5,12.75001 -8.25,24.75001 -2.75,12 -5.75,23 -5.75,23 0,0 5.75,16 9.25,30 3.5,14 3.75,24.25 3.75,24.25 0,0 -4,10.25 -7.5,24.25 -3.5,14 -5,30.75 -5,30.75 0,0 9.25,-2 28.5,1.25 19.25,3.25 32.25,6 32.25,6 0,0 12.75,-2.75 23.999995,-6.25 11.25,-3.5 16.25,-6.5 16.25,-6.5 0,0 5.5,0.5 22.5,6.25 17,5.75 29.25,8.5 29.25,8.5 0,0 13,-2.75 26,-5.75 13,-3 26.5,-8 26.5,-8 0,0 -0.75,-5 4.25,-24.5 5,-19.5 8.75,-28 8.75,-28 0,0 -0.5,-4.5 -3.75,-19.75 -3.25,-15.25 -10,-29.75 -10,-29.75 0,0 1.75,-10.5 6.75,-23.75 5,-13.25 10.25,-26.75001 10.25,-26.75001 0,0 -4.75,-15.25 -7.5,-29.749995 -2.75,-14.5 -8.25,-25.75 -8.25,-25.75 0,0 -24.25,9 -31.75,10.5 -7.5,1.5 -21,5.25 -21,5.25 0,0 -9.75,-4.25 -22,-8.5 -12.25,-4.25 -29.75,-5.5 -29.75,-5.5 0,0 -3.25,3.5 -22,8 -18.749995,4.5 -27.499995,5.75 -27.499995,5.75 0,0 -18.5,-9 -31.5,-11.5 -13,-2.5 -24,-2 -24.75,-1.75 z"
     id="path210" />
  <g
     transform="translate(8.6153846,51.384615)"
     clip-path="url(#i)"
     id="g214">
    <path
       fill="#a6dd8b"
       d="m 110.75,5.5 -4.25,7 c -0.75,9 -2.25,13.75 -8.5,16.5 -6.25,2.75 -12.25,3.5 -11,7.5 1.25,4 13,9.25 14.25,13 1.25,3.75 8.25,1.75 11,7 2.75,5.25 2,15.25 -3.75,17.25 -5.75,2 -17.5,0.5 -20.25,9.5 -2.75,9 -4.75,10.5 -9,12.75 -4.25,2.25 -7.25,10.5 -3.5,16.5 3.75,6 12.25,-1.25 15,-6.5 C 93.5,100.75 98,97.25 98,97.25 h 23.75 l 59,-1.75 3.25,-3.75 c 0,0 3.25,4 2.75,8.75 -0.5,4.75 -3.75,14.75 0.25,17.25 4,2.5 19.5,-2 24,-7 4.5,-5 -4.75,-28.25 -10.5,-29.5 -5.75,-1.25 -18.5,-1.75 -17,-7 1.5,-5.25 11.75,4.5 17.25,3.25 5.5,-1.25 16.75,-21 12,-25.25 C 208,48 188.5,47 187,44.25 c -1.5,-2.75 21,-8 22.25,-11 1.25,-3 -2.5,-7.25 -6.25,-8.5 C 199.25,23.5 189,41 182,40.5 175,40 162,46.25 164.75,52 c 2.75,5.75 -6,11 -14.5,6.5 -8.5,-4.5 -24.75,-13 -21.75,-24 3,-11 21.5,-18.75 21.5,-18.75 z M 97.188,112.72 c -1.595,0.15 -4.469,4.69 -4.938,7.03 -0.5,2.5 -3.25,6.75 -3.5,12.25 -0.25,5.5 4.75,6.75 8.75,6.5 4,-0.25 2.75,-6.75 2,-15 -0.25,0 -0.5,-10.25 -2,-10.75 -0.094,-0.03 -0.206,-0.04 -0.312,-0.03 z m 92.722,51.66 c -6.34,0.29 -6.63,7.46 -7.41,8.87 -1.25,2.25 2.25,13.75 2,18 -0.25,4.25 -4.75,5.25 -9.5,9.75 -4.75,4.5 0.5,16 11.25,31 l 44.75,1.25 -1,-35 c 0,0 4.75,-4.25 -20.75,-24.25 -9.56,-7.5 -15.54,-9.8 -19.34,-9.62 z M 39.94,180.91 c -4.03,-0.11 -8.282,5.71 -9.688,7.59 -1.5,2 -6.25,5 -17,9.5 l -14.5,34.25 53,4.25 c 0,0 1.75,-11 -4.25,-15.75 -6,-4.75 -17.25,-5.75 -18.25,-13.25 -1,-7.5 9.25,-10 13.75,-14.25 4.5,-4.25 2,-11.25 -2.25,-12.25 a 3.728,3.728 0 0 0 -0.812,-0.09 z"
       id="path212" />
  </g>
  <path
     fill="#aac3e7"
     d="m 167.14538,136.72862 c -4.76,-0.015 -9.03,0.968 -11.53,3.156 -8,7 -35,0.75 -48.5,7 -13.499995,6.25 -13.249995,38 -14.749995,44.5 -1.5,6.5 -17.5,20.75 -20,23.5 -2.5,2.75 -13.25,7.25 -19.5,8.5 -6.25,1.25 -12.75,7.25 -15.5,11 -2.021,2.76 -7.406,6.45 -10.125,8.22 -0.046,0.18 -0.079,0.35 -0.125,0.53 -0.134,0.53 -0.247,1.08 -0.375,1.63 4.98,-1.61 11.18,-8.18 16.625,-13.63 6.25,-6.25 20,-7.75 27.75,-11.5 7.75,-3.75 14.25,-19.75 26.5,-23.75 12.249995,-4 21.249995,11.75 24.249995,18.5 3,6.75 1.75,12.75 3.75,17 2,4.25 11,11.75 11.5,13.5 0.5,1.75 -5,6.5 -6.25,8.5 -1.25,2 -10.5,7 -11.75,8.75 -0.97,1.35 -1.92,6.77 -2.31,9.22 0.41,-0.17 0.75,-0.31 1.12,-0.47 0.49,-2.53 1.52,-7.08 2.94,-8.5 2,-2 11.25,-4.5 12.5,-8.5 1.25,-4 7,-6.5 7,-6.5 0,0 2.75,4 16,14 8.83,6.67 12.76,15.53 14.41,20.72 0.67,0.17 1.53,0.41 2.03,0.53 -1.22,-4.32 -4.84,-16.24 -8.94,-20.75 -5,-5.5 -18.5,-10.75 -22.75,-22 -4.25,-11.25 -24.5,-34.25 -17.5,-40.25 7,-6 16.5,-4 28.5,7.5 12,11.5 46.25,5.75 57.75,3.75 9.95,-1.73 20.83,14.88 23.91,26.03 0.59,-2.09 1.12,-4 1.65,-5.75 -1.74,-1.92 -3.69,-4.62 -5.31,-8.28 -3.75,-8.5 -12,-13.25 -12,-13.25 0,0 8.75,-5 14.75,-7.75 1.62,-0.74 3.01,-1.68 4.19,-2.66 -0.16,-0.77 -0.26,-1.25 -0.44,-2.09 l -0.09,-0.44 c -4.77,5.56 -19.24,9.62 -21.66,10.94 -2.75,1.5 -18.25,3 -35.75,4.5 -17.5,1.5 -26.75,-7.5 -34.25,-14.75 -7.5,-7.25 -13,-36 -3,-38 10,-2 20,13.75 30,17 10,3.25 21.5,-15.75 19.75,-27 -1.2,-7.734 -14,-12.625 -24.47,-12.656 z m -53.34,13.281 c 1.27,10e-4 5.86,1.594 6.56,2.375 2.25,2.5 2,7.25 0,8 -2,0.75 -12.75,8 -10.5,14.25 2.25,6.25 1.75,18 -3.5,18 -5.25,0 -7.999995,0 -9.999995,-2.5 -2,-2.5 -2,-12 0,-19.75 2,-7.75 3.5,-15 7.999995,-18.25 3.094,-2.234 6.63,-2.128 9.44,-2.125 z m 13.59,73.095 c 0.2,0.01 1.91,3.51 4.72,7.03 3,3.75 3.25,8.25 3.25,8.25 0,0 -4.25,-4.75 -6,-8 -1.75,-3.25 -2,-7.25 -2,-7.25 0,-0.03 0.02,-0.03 0.03,-0.03 z"
     id="path216" />
  <path
     opacity="0.387"
     stroke-linejoin="round"
     d="m 131.36538,123.63462 c 6.25,0.5 12.25,-2.25001 10.75,-6.50001 -1.5,-4.25 -12.5,-7.25 -13.25,-3 -0.75,4.25 2,10.50001 2.5,9.50001 z m -14,-15.50001 c -8.5,-5.5 -8.5,-7.25 -7,-8 1.5,-0.75 10.25,5 12.75,8 2.5,3 -2.25,2 -5.75,0 z"
     stroke="#6d7f42"
     stroke-linecap="round"
     fill="none"
     id="path218" />
  <g
     clip-path="url(#j)"
     transform="translate(8.6153846,51.384615)"
     stroke="#6d7f42"
     fill="none"
     id="g228">
    <path
       opacity="0.387"
       stroke-linejoin="round"
       d="M 15.75,151.25 C 48.75,148.75 54,147.75 52,141 50,134.25 43.25,117.5 29,118.5 14.75,119.5 6.25,111.75 6.25,111.75"
       stroke-linecap="round"
       id="path220" />
    <path
       opacity="0.387"
       d="m 17.5,177.25 c 18.25,-10 28.75,-8.5 35,-11.5 6.25,-3 13.25,-5.75 15.75,-9.5 2.5,-3.75 5.75,-11.5 5.75,-18 0,-6.5 -3.5,-36 3.25,-43.5 6.75,-7.5 17.25,-26 26,-23.25 8.75,2.75 12.25,9.75 22,9.5 9.75,-0.25 21.75,-4 24.25,-12.25 2.5,-8.25 -15.75,-16 -16,-23 -0.25,-7 5.5,-14.25 20.25,-17 14.75,-2.75 23.5,-11.5 23.5,-11.5"
       id="path222" />
    <path
       opacity="0.387"
       stroke-linejoin="round"
       d="m 14.5,161 c 15.25,-1.5 22.25,3.5 31.5,1.75 9.25,-1.75 13.25,-3 17.75,-5.75 4.5,-2.75 6,-3.75 6.25,-6.5 0.25,-2.75 1,-12.5 -3,-22 C 63,119 54.5,97 58.75,89.75 63,82.5 64,68.25 74.5,65.25 85,62.25 95.5,59 102.25,64 c 6.75,5 12.75,14.25 20,14.5 7.25,0.25 11.75,-1.5 14.5,-4.5 2.75,-3 4.5,-10.25 1.75,-13.75 -2.75,-3.5 -15.5,-5.5 -17.25,-9.5 -1.75,-4 -10.75,-17 -0.25,-26.75 10.5,-9.75 36.25,-8.25 36.25,-8.25"
       stroke-linecap="round"
       id="path224" />
    <path
       opacity="0.387"
       stroke-linejoin="round"
       d="m 21.25,159 c 13.75,1 21.5,4.25 33.5,-0.5 12,-4.75 13.5,-5.25 13.75,-8.75 0.25,-3.5 -0.25,-15.75 -3,-20 C 62.75,125.5 52.5,116 49.75,105.5 47,95 50,64.5 58.25,57.25 66.5,50 90.25,50 95.75,46.75 101.25,43.5 101,30 108.75,22.25 116.5,14.5 135.75,10 135.75,10 M 190,18.5 c 11.75,5 39,9.75 47.25,40.25 M 9.75,214 c 19,-12.5 36,-1.25 49,-4 13,-2.75 38.25,-37.25 46,-37 7.75,0.25 5.5,-11.75 8.5,-13.25 3,-1.5 5.5,6 11.75,8 6.25,2 24.5,-2.75 23.5,-5.75 -1,-3 -7,-7.75 -5.5,-8.5 1.5,-0.75 8.5,5 12.75,3.5 4.25,-1.5 43.75,-1 48.5,-13.5 C 209,131 225.75,130 225.75,130 M 77.5,233.5 c 13.5,-11.5 23.25,-25 28.5,-27 5.25,-2 12.75,-3.75 15.75,-8 3,-4.25 2.5,-10.75 5.25,-12 2.75,-1.25 3.75,5.75 8.75,6 5,0.25 36.75,-5 42.75,-11.75 6,-6.75 32.25,-12.5 32.5,-14.5 0.25,-2 -1,-4.75 0.25,-5.5 1.25,-0.75 24.75,-6 24.75,-6 M 168.75,236 c 9,-13.75 20.5,-41 29.5,-42 9,-1 10.25,-2.5 12.5,-4.25 2.25,-1.75 17,2.25 17,2.25"
       stroke-linecap="round"
       id="path226" />
  </g>
  <g
     clip-path="url(#k)"
     transform="translate(8.6153846,51.384615)"
     stroke="#d38484"
     stroke-linecap="round"
     stroke-width="2"
     fill="none"
     id="g234">
    <path
       d="m 57.75,20 -8.5,28.25 18,6.25 L 75,90.75 54,113 l 9,10.5 -12,11.5 0.5,4.5 20.25,24.5 14,-6.75 20.5,18.5 -10.5,28.25 10.25,8.5 -2.75,13"
       id="path230" />
    <path
       d="m 105.75,212.25 12.5,-27.75 11,-7 27.5,15.75 20.5,-3.75 -0.25,-15.75 -10.25,-6 12.75,-26.25 5.75,-3.75 38.75,-10"
       id="path232" />
  </g>
  <path
     opacity="0.039"
     d="m 17.615385,63.634615 c 0,0 7.5,13 11.75,27.75 4.25,14.749995 6.25,25.499995 6.25,25.499995 0,0 -5.5,12.75001 -8.25,24.75001 -2.75,12 -5.75,23 -5.75,23 0,0 5.75,16 9.25,30 3.5,14 3.75,24.25 3.75,24.25 0,0 -4,10.25 -7.5,24.25 -3.5,14 -5,30.75 -5,30.75 0,0 9.25,-2 28.5,1.25 19.25,3.25 32.25,6 32.25,6 0,0 12.75,-2.75 23.999995,-6.25 11.25,-3.5 16.25,-6.5 16.25,-6.5 0,0 5.5,0.5 22.5,6.25 17,5.75 29.25,8.5 29.25,8.5 0,0 13,-2.75 26,-5.75 13,-3 26.5,-8 26.5,-8 0,0 -0.75,-5 4.25,-24.5 5,-19.5 8.75,-28 8.75,-28 0,0 -0.5,-4.5 -3.75,-19.75 -3.25,-15.25 -10,-29.75 -10,-29.75 0,0 1.75,-10.5 6.75,-23.75 5,-13.25 10.25,-26.75001 10.25,-26.75001 0,0 -4.75,-15.25 -7.5,-29.749995 -2.75,-14.5 -8.25,-25.75 -8.25,-25.75 0,0 -24.25,9 -31.75,10.5 -7.5,1.5 -21,5.25 -21,5.25 0,0 -9.75,-4.25 -22,-8.5 -12.25,-4.25 -29.75,-5.5 -29.75,-5.5 0,0 -3.25,3.5 -22,8 -18.749995,4.5 -27.499995,5.75 -27.499995,5.75 0,0 -18.5,-9 -31.5,-11.5 -13,-2.5 -24,-2 -24.75,-1.75 z"
     fill="url(#l)"
     id="path256"
     style="fill:url(#l)" />
  <g
     opacity="0.27"
     id="g274"
     transform="translate(8.6153846,61.384615)">
    <path
       fill="url(#m)"
       d="m 219.25,-182 c 0,0 -24.25,9 -31.75,10.5 -7.5,1.5 -21,5.25 -21,5.25 4.92,-1.36 11.44,45.39 14.25,52.25 l -0.06,0.28 c 11.81,-4.07 51.21,-4.77 54.31,-12.78 0,0 -4.75,-15.25 -7.5,-29.75 -2.75,-14.5 -8.25,-25.75 -8.25,-25.75 z"
       transform="translate(0,182)"
       id="path258"
       style="fill:url(#linearGradient103987)" />
    <path
       fill="url(#n)"
       d="m 27,-126.5 c 0,0 -5.5,12.75 -8.25,24.75 -2.75,12 -5.75,23 -5.75,23 l 50.625,16.281 15.781,-58.911 z"
       transform="translate(0,182)"
       id="path260"
       style="fill:url(#linearGradient103989)" />
    <path
       fill="url(#o)"
       d="m 26,-24.5 c 0,0 -4,10.25 -7.5,24.25 -3.5,14 -5,30.75 -5,30.75 0,0 0.147,-0.045 0.438,-0.094 2.033,-0.338 11.218,-1.5 28.062,1.344 19.25,3.25 32.25,6 32.25,6 l 1.469,-52.5 -0.75,0.125 z"
       transform="translate(0,182)"
       id="path262"
       style="fill:url(#linearGradient103991)" />
    <path
       fill="url(#p)"
       d="m 114.75,-180.25 c 0,0 -3.25,3.5 -22,8 -18.75,4.5 -27.5,5.75 -27.5,5.75 5.182,14.7 12.03,29.27 14.25,44.75 l -0.094,0.31 48.034,-3.94 1.12,0.26 c -3.36,-13.33 -7.79,-54.6 -13.81,-55.13 z"
       transform="translate(0,182)"
       id="path264"
       style="fill:url(#linearGradient103993)" />
    <path
       fill="url(#q)"
       d="M 117.59,-78.094 63.969,-62.375 63.625,-62.469 63.5,-62 l 12.25,46.5 -0.031,0.75 49.471,-8.875 0.53,0.187 0.03,-0.062 -8.25,-54.25 z"
       transform="translate(0,182)"
       id="path266"
       style="fill:url(#linearGradient103995)" />
    <path
       fill="url(#r)"
       d="m 128.56,-125.12 c 0.24,0.92 0.47,1.74 0.69,2.37 l -11.66,44.656 0.1,-0.031 51.81,17.375 11.19,-52.97 c -0.36,0.12 -0.7,0.25 -1,0.38 z"
       transform="translate(0,182)"
       id="path268"
       style="fill:url(#linearGradient103997)" />
    <path
       fill="url(#s)"
       d="M 125.53,-23.5 114.5,25 c 0,0 5.5,0.5 22.5,6.25 2.12,0.719 4.16,1.406 6.12,2.031 1.97,0.626 3.86,1.186 5.63,1.719 10.62,3.199 17.5,4.75 17.5,4.75 l 12.72,-45.406 c -0.51,0.182 -1.02,0.38 -1.53,0.562 z"
       transform="translate(0,182)"
       id="path270"
       style="fill:url(#linearGradient103999)" />
    <path
       fill="url(#t)"
       d="m 218,-76 c -15.67,6.288 -31.7,11.15 -48.06,15.406 l -0.44,-0.156 9.5,55 -0.03,0.094 c 17.84,-6.36 35.38,-13.387 52.78,-20.844 0,0 -0.5,-4.5 -3.75,-19.75 C 224.75,-61.5 218,-76 218,-76 Z"
       transform="translate(0,182)"
       id="path272"
       style="fill:url(#linearGradient104001)" />
  </g>
  <g
     opacity="0.043"
     id="g292"
     transform="translate(8.6153846,61.384615)">
    <path
       fill="url(#u)"
       d="m 13.719,-179.97 c -1.106,0 -1.972,0.03 -2.719,0.06 -0.445,0.02 -0.855,0.04 -1.156,0.07 -0.03,0 -0.066,-0.01 -0.094,0 -0.398,0.03 -0.656,0.06 -0.75,0.09 0,0 7.5,13 11.75,27.75 4.25,14.75 6.25,25.5 6.25,25.5 l 51.469,5.12 0.937,-0.06 0.094,-0.31 c -2.22,-15.48 -9.068,-30.05 -14.25,-44.75 0,0 -18.5,-9 -31.5,-11.5 -1.018,-0.2 -2.01,-0.37 -3,-0.53 -0.596,-0.1 -1.167,-0.2 -1.75,-0.28 -0.237,-0.04 -0.453,-0.06 -0.688,-0.1 a 98.772,98.772 0 0 0 -3.812,-0.46 c -0.735,-0.08 -1.395,-0.13 -2.094,-0.19 -0.685,-0.06 -1.353,-0.11 -2,-0.16 -0.992,-0.07 -1.89,-0.12 -2.781,-0.15 -1.456,-0.07 -2.769,-0.1 -3.906,-0.1 z"
       transform="translate(0,182)"
       id="path276"
       style="fill:url(#linearGradient104003)" />
    <path
       fill="url(#v)"
       d="m 13,-78.75 c 0,0 5.75,16 9.25,30 3.5,14 3.75,24.25 3.75,24.25 l 48.969,9.875 0.75,-0.125 0.031,-0.75 -12.25,-46.5 0.125,-0.469 z"
       transform="translate(0,182)"
       id="path278"
       style="fill:url(#linearGradient104005)" />
    <path
       fill="url(#w)"
       d="m 127.44,-125.38 -47.971,4 h -0.063 l -15.781,58.911 0.344,0.094 53.621,-15.719 11.66,-44.656 c -0.22,-0.63 -0.45,-1.45 -0.69,-2.37 z"
       transform="translate(0,182)"
       id="path280"
       style="fill:url(#linearGradient104007)" />
    <path
       fill="url(#x)"
       d="m 125.19,-23.625 -49.471,8.875 -1.469,52.5 c 0,0 12.75,-2.75 24,-6.25 C 109.5,28 114.5,25 114.5,25 l 11.22,-48.438 z"
       transform="translate(0,182)"
       id="path282"
       style="fill:url(#linearGradient104009)" />
    <path
       fill="url(#y)"
       d="m 114.75,-180.25 c 6.02,0.53 10.45,41.8 13.81,55.13 l 51.13,11.78 c 0.3,-0.13 0.64,-0.26 1,-0.38 l 0.06,-0.28 c -2.81,-6.86 -9.33,-53.61 -14.25,-52.25 0,0 -0.61,-0.25 -1.72,-0.72 -3.32,-1.39 -11.09,-4.59 -20.28,-7.78 -12.25,-4.25 -29.75,-5.5 -29.75,-5.5 z"
       transform="translate(0,182)"
       id="path284"
       style="fill:url(#linearGradient104011)" />
    <path
       fill="url(#z)"
       d="m 117.69,-78.125 -0.1,0.031 -0.09,0.344 8.25,53.25 -0.22,1 51.91,18.406 c 0.51,-0.181 1.02,-0.38 1.53,-0.562 l 0.03,-0.094 -9.5,-55 z"
       transform="translate(0,182)"
       id="path286"
       style="fill:url(#linearGradient104013)" />
    <path
       fill="url(#A)"
       d="m 231.75,-26.5 c -17.4,7.457 -34.94,14.484 -52.78,20.844 L 166.25,39.75 c 0,0 13,-2.75 26,-5.75 13,-3 26.5,-8 26.5,-8 0,0 -0.75,-5 4.25,-24.5 5,-19.5 8.75,-28 8.75,-28 z"
       transform="translate(0,182)"
       id="path288"
       style="fill:url(#linearGradient104015)" />
    <path
       fill="url(#B)"
       d="m 235,-126.5 c -3.1,8.01 -42.5,8.71 -54.31,12.78 l -11.19,52.97 0.44,0.156 C 186.3,-64.85 202.33,-69.712 218,-76 c 0,0 1.75,-10.5 6.75,-23.75 5,-13.25 10.25,-26.75 10.25,-26.75 z"
       transform="translate(0,182)"
       id="path290"
       style="fill:url(#linearGradient104017)" />
  </g>
  <g
     clip-path="url(#C)"
     transform="matrix(1.2525,0.0354,0,1.2525,-19.193615,13.040615)"
     id="g358">
    <path
       fill="#ceeeab"
       d="m 9,12.25 c 0,0 7.5,13 11.75,27.75 C 25,54.75 27,65.5 27,65.5 c 0,0 -5.5,12.75 -8.25,24.75 -2.75,12 -5.75,23 -5.75,23 0,0 5.75,16 9.25,30 3.5,14 3.75,24.25 3.75,24.25 0,0 -4,10.25 -7.5,24.25 -3.5,14 -5,30.75 -5,30.75 0,0 9.25,-2 28.5,1.25 19.25,3.25 32.25,6 32.25,6 0,0 12.75,-2.75 24,-6.25 11.25,-3.5 16.25,-6.5 16.25,-6.5 0,0 5.5,0.5 22.5,6.25 17,5.75 29.25,8.5 29.25,8.5 0,0 13,-2.75 26,-5.75 13,-3 26.5,-8 26.5,-8 0,0 -0.75,-5 4.25,-24.5 5,-19.5 8.75,-28 8.75,-28 0,0 -0.5,-4.5 -3.75,-19.75 C 224.75,130.5 218,116 218,116 c 0,0 1.75,-10.5 6.75,-23.75 C 229.75,79 235,65.5 235,65.5 c 0,0 -4.75,-15.25 -7.5,-29.75 C 224.75,21.25 219.25,10 219.25,10 c 0,0 -24.25,9 -31.75,10.5 -7.5,1.5 -21,5.25 -21,5.25 0,0 -9.75,-4.25 -22,-8.5 -12.25,-4.25 -29.75,-5.5 -29.75,-5.5 0,0 -3.25,3.5 -22,8 -18.75,4.5 -27.5,5.75 -27.5,5.75 0,0 -18.5,-9 -31.5,-11.5 -13,-2.5 -24,-2 -24.75,-1.75 z"
       id="path294" />
    <g
       clip-path="url(#D)"
       id="g298">
      <path
         fill="#a6dd8b"
         d="m 110.75,5.5 -4.25,7 c -0.75,9 -2.25,13.75 -8.5,16.5 -6.25,2.75 -12.25,3.5 -11,7.5 1.25,4 13,9.25 14.25,13 1.25,3.75 8.25,1.75 11,7 2.75,5.25 2,15.25 -3.75,17.25 -5.75,2 -17.5,0.5 -20.25,9.5 -2.75,9 -4.75,10.5 -9,12.75 -4.25,2.25 -7.25,10.5 -3.5,16.5 3.75,6 12.25,-1.25 15,-6.5 C 93.5,100.75 98,97.25 98,97.25 h 23.75 l 59,-1.75 3.25,-3.75 c 0,0 3.25,4 2.75,8.75 -0.5,4.75 -3.75,14.75 0.25,17.25 4,2.5 19.5,-2 24,-7 4.5,-5 -4.75,-28.25 -10.5,-29.5 -5.75,-1.25 -18.5,-1.75 -17,-7 1.5,-5.25 11.75,4.5 17.25,3.25 5.5,-1.25 16.75,-21 12,-25.25 C 208,48 188.5,47 187,44.25 c -1.5,-2.75 21,-8 22.25,-11 1.25,-3 -2.5,-7.25 -6.25,-8.5 C 199.25,23.5 189,41 182,40.5 175,40 162,46.25 164.75,52 c 2.75,5.75 -6,11 -14.5,6.5 -8.5,-4.5 -24.75,-13 -21.75,-24 3,-11 21.5,-18.75 21.5,-18.75 z M 97.188,112.72 c -1.595,0.15 -4.469,4.69 -4.938,7.03 -0.5,2.5 -3.25,6.75 -3.5,12.25 -0.25,5.5 4.75,6.75 8.75,6.5 4,-0.25 2.75,-6.75 2,-15 -0.25,0 -0.5,-10.25 -2,-10.75 -0.094,-0.03 -0.206,-0.04 -0.312,-0.03 z m 92.722,51.66 c -6.34,0.29 -6.63,7.46 -7.41,8.87 -1.25,2.25 2.25,13.75 2,18 -0.25,4.25 -4.75,5.25 -9.5,9.75 -4.75,4.5 0.5,16 11.25,31 l 44.75,1.25 -1,-35 c 0,0 4.75,-4.25 -20.75,-24.25 -9.56,-7.5 -15.54,-9.8 -19.34,-9.62 z M 39.94,180.91 c -4.03,-0.11 -8.282,5.71 -9.688,7.59 -1.5,2 -6.25,5 -17,9.5 l -14.5,34.25 53,4.25 c 0,0 1.75,-11 -4.25,-15.75 -6,-4.75 -17.25,-5.75 -18.25,-13.25 -1,-7.5 9.25,-10 13.75,-14.25 4.5,-4.25 2,-11.25 -2.25,-12.25 a 3.728,3.728 0 0 0 -0.812,-0.09 z"
         id="path296" />
    </g>
    <path
       fill="#aac3e7"
       d="m 158.53,85.344 c -4.76,-0.015 -9.03,0.968 -11.53,3.156 -8,7 -35,0.75 -48.5,7 -13.5,6.25 -13.25,38 -14.75,44.5 -1.5,6.5 -17.5,20.75 -20,23.5 -2.5,2.75 -13.25,7.25 -19.5,8.5 -6.25,1.25 -12.75,7.25 -15.5,11 -2.021,2.76 -7.406,6.45 -10.125,8.22 -0.046,0.18 -0.079,0.35 -0.125,0.53 -0.134,0.53 -0.247,1.08 -0.375,1.63 4.98,-1.61 11.18,-8.18 16.625,-13.63 6.25,-6.25 20,-7.75 27.75,-11.5 7.75,-3.75 14.25,-19.75 26.5,-23.75 12.25,-4 21.25,11.75 24.25,18.5 3,6.75 1.75,12.75 3.75,17 2,4.25 11,11.75 11.5,13.5 0.5,1.75 -5,6.5 -6.25,8.5 -1.25,2 -10.5,7 -11.75,8.75 -0.97,1.35 -1.92,6.77 -2.31,9.22 0.41,-0.17 0.75,-0.31 1.12,-0.47 0.49,-2.53 1.52,-7.08 2.94,-8.5 2,-2 11.25,-4.5 12.5,-8.5 1.25,-4 7,-6.5 7,-6.5 0,0 2.75,4 16,14 8.83,6.67 12.76,15.53 14.41,20.72 0.67,0.17 1.53,0.41 2.03,0.53 -1.22,-4.32 -4.84,-16.24 -8.94,-20.75 -5,-5.5 -18.5,-10.75 -22.75,-22 -4.25,-11.25 -24.5,-34.25 -17.5,-40.25 7,-6 16.5,-4 28.5,7.5 12,11.5 46.25,5.75 57.75,3.75 9.95,-1.73 20.83,14.88 23.91,26.03 0.59,-2.09 1.12,-4 1.65,-5.75 -1.74,-1.92 -3.69,-4.62 -5.31,-8.28 -3.75,-8.5 -12,-13.25 -12,-13.25 0,0 8.75,-5 14.75,-7.75 1.62,-0.74 3.01,-1.68 4.19,-2.66 -0.16,-0.77 -0.26,-1.25 -0.44,-2.09 l -0.09,-0.44 c -4.77,5.56 -19.24,9.62 -21.66,10.94 -2.75,1.5 -18.25,3 -35.75,4.5 -17.5,1.5 -26.75,-7.5 -34.25,-14.75 -7.5,-7.25 -13,-36 -3,-38 10,-2 20,13.75 30,17 10,3.25 21.5,-15.75 19.75,-27 -1.2,-7.734 -14,-12.625 -24.47,-12.656 z m -53.34,13.281 c 1.27,0.001 5.86,1.595 6.56,2.375 2.25,2.5 2,7.25 0,8 -2,0.75 -12.75,8 -10.5,14.25 2.25,6.25 1.75,18 -3.5,18 -5.25,0 -8,0 -10,-2.5 -2,-2.5 -2,-12 0,-19.75 2,-7.75 3.5,-15 8,-18.25 3.094,-2.234 6.63,-2.128 9.44,-2.125 z m 13.59,73.095 c 0.2,0.01 1.91,3.51 4.72,7.03 3,3.75 3.25,8.25 3.25,8.25 0,0 -4.25,-4.75 -6,-8 -1.75,-3.25 -2,-7.25 -2,-7.25 0,-0.03 0.02,-0.03 0.03,-0.03 z"
       id="path300" />
    <path
       opacity="0.387"
       stroke-linejoin="round"
       d="M 122.75,72.25 C 129,72.75 135,70 133.5,65.75 132,61.5 121,58.5 120.25,62.75 c -0.75,4.25 2,10.5 2.5,9.5 z m -14,-15.5 c -8.5,-5.5 -8.5,-7.25 -7,-8 1.5,-0.75 10.25,5 12.75,8 2.5,3 -2.25,2 -5.75,0 z"
       stroke="#6d7f42"
       stroke-linecap="round"
       fill="none"
       id="path302" />
    <g
       stroke="#6d7f42"
       fill="none"
       clip-path="url(#E)"
       id="g312">
      <path
         opacity="0.387"
         stroke-linejoin="round"
         d="M 15.75,151.25 C 48.75,148.75 54,147.75 52,141 50,134.25 43.25,117.5 29,118.5 14.75,119.5 6.25,111.75 6.25,111.75"
         stroke-linecap="round"
         id="path304" />
      <path
         opacity="0.387"
         d="m 17.5,177.25 c 18.25,-10 28.75,-8.5 35,-11.5 6.25,-3 13.25,-5.75 15.75,-9.5 2.5,-3.75 5.75,-11.5 5.75,-18 0,-6.5 -3.5,-36 3.25,-43.5 6.75,-7.5 17.25,-26 26,-23.25 8.75,2.75 12.25,9.75 22,9.5 9.75,-0.25 21.75,-4 24.25,-12.25 2.5,-8.25 -15.75,-16 -16,-23 -0.25,-7 5.5,-14.25 20.25,-17 14.75,-2.75 23.5,-11.5 23.5,-11.5"
         id="path306" />
      <path
         opacity="0.387"
         stroke-linejoin="round"
         d="m 14.5,161 c 15.25,-1.5 22.25,3.5 31.5,1.75 9.25,-1.75 13.25,-3 17.75,-5.75 4.5,-2.75 6,-3.75 6.25,-6.5 0.25,-2.75 1,-12.5 -3,-22 C 63,119 54.5,97 58.75,89.75 63,82.5 64,68.25 74.5,65.25 85,62.25 95.5,59 102.25,64 c 6.75,5 12.75,14.25 20,14.5 7.25,0.25 11.75,-1.5 14.5,-4.5 2.75,-3 4.5,-10.25 1.75,-13.75 -2.75,-3.5 -15.5,-5.5 -17.25,-9.5 -1.75,-4 -10.75,-17 -0.25,-26.75 10.5,-9.75 36.25,-8.25 36.25,-8.25"
         stroke-linecap="round"
         id="path308" />
      <path
         opacity="0.387"
         stroke-linejoin="round"
         d="m 21.25,159 c 13.75,1 21.5,4.25 33.5,-0.5 12,-4.75 13.5,-5.25 13.75,-8.75 0.25,-3.5 -0.25,-15.75 -3,-20 C 62.75,125.5 52.5,116 49.75,105.5 47,95 50,64.5 58.25,57.25 66.5,50 90.25,50 95.75,46.75 101.25,43.5 101,30 108.75,22.25 116.5,14.5 135.75,10 135.75,10 M 190,18.5 c 11.75,5 39,9.75 47.25,40.25 M 9.75,214 c 19,-12.5 36,-1.25 49,-4 13,-2.75 38.25,-37.25 46,-37 7.75,0.25 5.5,-11.75 8.5,-13.25 3,-1.5 5.5,6 11.75,8 6.25,2 24.5,-2.75 23.5,-5.75 -1,-3 -7,-7.75 -5.5,-8.5 1.5,-0.75 8.5,5 12.75,3.5 4.25,-1.5 43.75,-1 48.5,-13.5 C 209,131 225.75,130 225.75,130 M 77.5,233.5 c 13.5,-11.5 23.25,-25 28.5,-27 5.25,-2 12.75,-3.75 15.75,-8 3,-4.25 2.5,-10.75 5.25,-12 2.75,-1.25 3.75,5.75 8.75,6 5,0.25 36.75,-5 42.75,-11.75 6,-6.75 32.25,-12.5 32.5,-14.5 0.25,-2 -1,-4.75 0.25,-5.5 1.25,-0.75 24.75,-6 24.75,-6 M 168.75,236 c 9,-13.75 20.5,-41 29.5,-42 9,-1 10.25,-2.5 12.5,-4.25 2.25,-1.75 17,2.25 17,2.25"
         stroke-linecap="round"
         id="path310" />
    </g>
    <g
       clip-path="url(#F)"
       stroke="#d38484"
       stroke-linecap="round"
       stroke-width="2"
       fill="none"
       id="g318">
      <path
         d="m 57.75,20 -8.5,28.25 18,6.25 L 75,90.75 54,113 l 9,10.5 -12,11.5 0.5,4.5 20.25,24.5 14,-6.75 20.5,18.5 -10.5,28.25 10.25,8.5 -2.75,13"
         id="path314" />
      <path
         d="m 105.75,212.25 12.5,-27.75 11,-7 27.5,15.75 20.5,-3.75 -0.25,-15.75 -10.25,-6 12.75,-26.25 5.75,-3.75 38.75,-10"
         id="path316" />
    </g>
    <path
       opacity="0.039"
       d="m 9,12.25 c 0,0 7.5,13 11.75,27.75 C 25,54.75 27,65.5 27,65.5 c 0,0 -5.5,12.75 -8.25,24.75 -2.75,12 -5.75,23 -5.75,23 0,0 5.75,16 9.25,30 3.5,14 3.75,24.25 3.75,24.25 0,0 -4,10.25 -7.5,24.25 -3.5,14 -5,30.75 -5,30.75 0,0 9.25,-2 28.5,1.25 19.25,3.25 32.25,6 32.25,6 0,0 12.75,-2.75 24,-6.25 11.25,-3.5 16.25,-6.5 16.25,-6.5 0,0 5.5,0.5 22.5,6.25 17,5.75 29.25,8.5 29.25,8.5 0,0 13,-2.75 26,-5.75 13,-3 26.5,-8 26.5,-8 0,0 -0.75,-5 4.25,-24.5 5,-19.5 8.75,-28 8.75,-28 0,0 -0.5,-4.5 -3.75,-19.75 C 224.75,130.5 218,116 218,116 c 0,0 1.75,-10.5 6.75,-23.75 C 229.75,79 235,65.5 235,65.5 c 0,0 -4.75,-15.25 -7.5,-29.75 C 224.75,21.25 219.25,10 219.25,10 c 0,0 -24.25,9 -31.75,10.5 -7.5,1.5 -21,5.25 -21,5.25 0,0 -9.75,-4.25 -22,-8.5 -12.25,-4.25 -29.75,-5.5 -29.75,-5.5 0,0 -3.25,3.5 -22,8 -18.75,4.5 -27.5,5.75 -27.5,5.75 0,0 -18.5,-9 -31.5,-11.5 -13,-2.5 -24,-2 -24.75,-1.75 z"
       fill="url(#G)"
       id="path320"
       style="fill:url(#G)" />
    <g
       opacity="0.27"
       id="g338">
      <path
         fill="url(#m)"
         d="m 219.25,-182 c 0,0 -24.25,9 -31.75,10.5 -7.5,1.5 -21,5.25 -21,5.25 4.92,-1.36 11.44,45.39 14.25,52.25 l -0.06,0.28 c 11.81,-4.07 51.21,-4.77 54.31,-12.78 0,0 -4.75,-15.25 -7.5,-29.75 -2.75,-14.5 -8.25,-25.75 -8.25,-25.75 z"
         transform="translate(0,192)"
         id="path322"
         style="fill:url(#m)" />
      <path
         fill="url(#n)"
         d="m 27,-126.5 c 0,0 -5.5,12.75 -8.25,24.75 -2.75,12 -5.75,23 -5.75,23 l 50.625,16.281 15.781,-58.911 z"
         transform="translate(0,192)"
         id="path324"
         style="fill:url(#n)" />
      <path
         fill="url(#o)"
         d="m 26,-24.5 c 0,0 -4,10.25 -7.5,24.25 -3.5,14 -5,30.75 -5,30.75 0,0 0.147,-0.045 0.438,-0.094 2.033,-0.338 11.218,-1.5 28.062,1.344 19.25,3.25 32.25,6 32.25,6 l 1.469,-52.5 -0.75,0.125 z"
         transform="translate(0,192)"
         id="path326"
         style="fill:url(#o)" />
      <path
         fill="url(#p)"
         d="m 114.75,-180.25 c 0,0 -3.25,3.5 -22,8 -18.75,4.5 -27.5,5.75 -27.5,5.75 5.182,14.7 12.03,29.27 14.25,44.75 l -0.094,0.31 48.034,-3.94 1.12,0.26 c -3.36,-13.33 -7.79,-54.6 -13.81,-55.13 z"
         transform="translate(0,192)"
         id="path328"
         style="fill:url(#p)" />
      <path
         fill="url(#q)"
         d="M 117.59,-78.094 63.969,-62.375 63.625,-62.469 63.5,-62 l 12.25,46.5 -0.031,0.75 49.471,-8.875 0.53,0.187 0.03,-0.062 -8.25,-54.25 z"
         transform="translate(0,192)"
         id="path330"
         style="fill:url(#q)" />
      <path
         fill="url(#r)"
         d="m 128.56,-125.12 c 0.24,0.92 0.47,1.74 0.69,2.37 l -11.66,44.656 0.1,-0.031 51.81,17.375 11.19,-52.97 c -0.36,0.12 -0.7,0.25 -1,0.38 z"
         transform="translate(0,192)"
         id="path332"
         style="fill:url(#r)" />
      <path
         fill="url(#s)"
         d="M 125.53,-23.5 114.5,25 c 0,0 5.5,0.5 22.5,6.25 2.12,0.719 4.16,1.406 6.12,2.031 1.97,0.626 3.86,1.186 5.63,1.719 10.62,3.199 17.5,4.75 17.5,4.75 l 12.72,-45.406 c -0.51,0.182 -1.02,0.38 -1.53,0.562 z"
         transform="translate(0,192)"
         id="path334"
         style="fill:url(#s)" />
      <path
         fill="url(#t)"
         d="m 218,-76 c -15.67,6.288 -31.7,11.15 -48.06,15.406 l -0.44,-0.156 9.5,55 -0.03,0.094 c 17.84,-6.36 35.38,-13.387 52.78,-20.844 0,0 -0.5,-4.5 -3.75,-19.75 C 224.75,-61.5 218,-76 218,-76 Z"
         transform="translate(0,192)"
         id="path336"
         style="fill:url(#t)" />
    </g>
    <g
       opacity="0.043"
       id="g356">
      <path
         fill="url(#u)"
         d="m 13.719,-179.97 c -1.106,0 -1.972,0.03 -2.719,0.06 -0.445,0.02 -0.855,0.04 -1.156,0.07 -0.03,0 -0.066,-0.01 -0.094,0 -0.398,0.03 -0.656,0.06 -0.75,0.09 0,0 7.5,13 11.75,27.75 4.25,14.75 6.25,25.5 6.25,25.5 l 51.469,5.12 0.937,-0.06 0.094,-0.31 c -2.22,-15.48 -9.068,-30.05 -14.25,-44.75 0,0 -18.5,-9 -31.5,-11.5 -1.018,-0.2 -2.01,-0.37 -3,-0.53 -0.596,-0.1 -1.167,-0.2 -1.75,-0.28 -0.237,-0.04 -0.453,-0.06 -0.688,-0.1 a 98.772,98.772 0 0 0 -3.812,-0.46 c -0.735,-0.08 -1.395,-0.13 -2.094,-0.19 -0.685,-0.06 -1.353,-0.11 -2,-0.16 -0.992,-0.07 -1.89,-0.12 -2.781,-0.15 -1.456,-0.07 -2.769,-0.1 -3.906,-0.1 z"
         transform="translate(0,192)"
         id="path340"
         style="fill:url(#u)" />
      <path
         fill="url(#v)"
         d="m 13,-78.75 c 0,0 5.75,16 9.25,30 3.5,14 3.75,24.25 3.75,24.25 l 48.969,9.875 0.75,-0.125 0.031,-0.75 -12.25,-46.5 0.125,-0.469 z"
         transform="translate(0,192)"
         id="path342"
         style="fill:url(#v)" />
      <path
         fill="url(#w)"
         d="m 127.44,-125.38 -47.971,4 h -0.063 l -15.781,58.911 0.344,0.094 53.621,-15.719 11.66,-44.656 c -0.22,-0.63 -0.45,-1.45 -0.69,-2.37 z"
         transform="translate(0,192)"
         id="path344"
         style="fill:url(#w)" />
      <path
         fill="url(#x)"
         d="m 125.19,-23.625 -49.471,8.875 -1.469,52.5 c 0,0 12.75,-2.75 24,-6.25 C 109.5,28 114.5,25 114.5,25 l 11.22,-48.438 z"
         transform="translate(0,192)"
         id="path346"
         style="fill:url(#x)" />
      <path
         fill="url(#y)"
         d="m 114.75,-180.25 c 6.02,0.53 10.45,41.8 13.81,55.13 l 51.13,11.78 c 0.3,-0.13 0.64,-0.26 1,-0.38 l 0.06,-0.28 c -2.81,-6.86 -9.33,-53.61 -14.25,-52.25 0,0 -0.61,-0.25 -1.72,-0.72 -3.32,-1.39 -11.09,-4.59 -20.28,-7.78 -12.25,-4.25 -29.75,-5.5 -29.75,-5.5 z"
         transform="translate(0,192)"
         id="path348"
         style="fill:url(#y)" />
      <path
         fill="url(#z)"
         d="m 117.69,-78.125 -0.1,0.031 -0.09,0.344 8.25,53.25 -0.22,1 51.91,18.406 c 0.51,-0.181 1.02,-0.38 1.53,-0.562 l 0.03,-0.094 -9.5,-55 z"
         transform="translate(0,192)"
         id="path350"
         style="fill:url(#z)" />
      <path
         fill="url(#A)"
         d="m 231.75,-26.5 c -17.4,7.457 -34.94,14.484 -52.78,20.844 L 166.25,39.75 c 0,0 13,-2.75 26,-5.75 13,-3 26.5,-8 26.5,-8 0,0 -0.75,-5 4.25,-24.5 5,-19.5 8.75,-28 8.75,-28 z"
         transform="translate(0,192)"
         id="path352"
         style="fill:url(#A)" />
      <path
         fill="url(#B)"
         d="m 235,-126.5 c -3.1,8.01 -42.5,8.71 -54.31,12.78 l -11.19,52.97 0.44,0.156 C 186.3,-64.85 202.33,-69.712 218,-76 c 0,0 1.75,-10.5 6.75,-23.75 5,-13.25 10.25,-26.75 10.25,-26.75 z"
         transform="translate(0,192)"
         id="path354"
         style="fill:url(#B)" />
    </g>
  </g>
  <path
     d="m 174.28,35.875 c -17.6,0 -35.19,6.639 -48.72,19.906 -0.16,0.164 -0.33,0.303 -0.5,0.469 -22.05,22.056 -26.206,55.25 -12.47,81.5 l -2.28,1.63 c 2.25,4.23 4.94,8.3 8.1,12.12 l -13.32,13.34 c -1.34,-0.58 -2.78,-1.03 -4.56,-1.37 l -2.842,2.84 c -1.11,-0.48 -2.139,-0.81 -3.063,-0.87 L 30.5,229.56 c -0.037,1.1 0.226,2.19 0.656,3.28 l -0.531,0.54 -1.094,1.09 c 0.716,3.74 2.011,6.82 5.469,10.28 3.458,3.46 6.42,4.63 10.281,5.47 l 1.094,-1.1 0.719,-0.71 c 1.088,0.46 2.13,0.78 3.094,0.84 l 64.122,-64.13 c -0.24,-0.97 -0.62,-1.93 -1.03,-2.9 l 3,-3 c -0.25,-1.73 -0.68,-3.2 -1.31,-4.6 l 13.28,-13.28 c 3.82,3.16 7.89,5.85 12.13,8.1 l 1.62,-2.28 c 26.25,13.74 59.44,9.58 81.5,-12.47 0.17,-0.17 0.31,-0.34 0.47,-0.5 C 250.66,126.97 250.52,83.267 223.5,56.25 209.91,42.66 192.09,35.875 174.28,35.875 Z m -0.5,3.281 c 0.11,0.002 0.21,-0.002 0.31,0 a 67.89,67.89 0 0 1 5.72,0.375 c 0.1,0.01 0.19,0.021 0.28,0.031 l 0.29,0.032 c 0.14,0.017 0.29,0.044 0.43,0.062 0.9,0.11 1.8,0.228 2.69,0.375 0.62,0.102 1.23,0.224 1.84,0.344 0.35,0.066 0.69,0.116 1.04,0.187 0.72,0.153 1.43,0.324 2.15,0.5 0.31,0.077 0.63,0.138 0.94,0.219 0.07,0.019 0.14,0.043 0.22,0.063 0.95,0.253 1.89,0.516 2.84,0.812 0.07,0.023 0.15,0.04 0.22,0.063 0.95,0.3 1.91,0.625 2.84,0.969 0.06,0.019 0.11,0.042 0.16,0.062 0.95,0.352 1.9,0.728 2.84,1.125 0.06,0.022 0.11,0.041 0.16,0.063 0.94,0.4 1.88,0.836 2.81,1.281 l 0.13,0.062 c 0.93,0.451 1.86,0.91 2.78,1.407 0.03,0.017 0.06,0.044 0.09,0.062 0.93,0.503 1.84,1.013 2.75,1.562 0.03,0.02 0.06,0.044 0.1,0.063 0.9,0.551 1.8,1.122 2.68,1.719 0.55,0.369 1.09,0.769 1.63,1.156 0.36,0.261 0.73,0.512 1.09,0.781 0.02,0.014 0.05,0.018 0.06,0.031 0.88,0.656 1.75,1.36 2.6,2.063 a 70.875,70.875 0 0 1 5.06,4.594 c 1.62,1.62 3.14,3.3 4.56,5.031 0.01,0.011 0.03,0.02 0.03,0.031 0.71,0.855 1.41,1.715 2.07,2.594 0.28,0.379 0.54,0.773 0.81,1.156 0.37,0.517 0.74,1.038 1.09,1.563 0.02,0.024 0.05,0.038 0.07,0.062 0.59,0.89 1.16,1.778 1.71,2.688 0.02,0.032 0.05,0.061 0.07,0.094 a 75.45,75.45 0 0 1 1.56,2.75 c 0.02,0.032 0.04,0.06 0.06,0.093 0.5,0.921 0.96,1.844 1.41,2.781 l 0.06,0.126 c 0.45,0.929 0.88,1.868 1.28,2.812 l 0.06,0.156 c 0.4,0.936 0.78,1.895 1.13,2.844 l 0.06,0.156 c 0.35,0.949 0.67,1.885 0.97,2.844 l 0.06,0.219 c 0.3,0.941 0.56,1.894 0.82,2.843 l 0.06,0.219 c 0.08,0.31 0.14,0.627 0.22,0.938 0.17,0.72 0.35,1.432 0.5,2.156 0.07,0.342 0.12,0.688 0.18,1.031 0.12,0.617 0.25,1.225 0.35,1.844 0.15,0.893 0.26,1.791 0.37,2.688 0.02,0.145 0.05,0.291 0.07,0.437 l 0.03,0.281 0.03,0.282 c 0.1,0.952 0.19,1.912 0.25,2.872 0.06,0.94 0.11,1.9 0.12,2.85 0.01,0.1 0,0.2 0,0.31 0.02,1.05 0.01,2.1 -0.03,3.15 -0.03,0.94 -0.08,1.86 -0.15,2.79 -0.01,0.12 -0.02,0.25 -0.04,0.37 -0.07,0.92 -0.16,1.84 -0.28,2.75 -0.12,0.96 -0.27,1.93 -0.43,2.88 -0.02,0.08 -0.02,0.16 -0.04,0.25 -0.02,0.12 -0.03,0.25 -0.06,0.37 -0.16,0.91 -0.36,1.82 -0.56,2.72 -0.03,0.13 -0.06,0.27 -0.09,0.41 a 86.1,86.1 0 0 1 -0.69,2.65 c -0.17,0.59 -0.35,1.17 -0.53,1.75 -0.18,0.57 -0.34,1.13 -0.53,1.69 -0.3,0.86 -0.61,1.71 -0.94,2.56 -0.06,0.16 -0.13,0.32 -0.19,0.47 -0.04,0.11 -0.08,0.23 -0.12,0.34 -0.36,0.88 -0.73,1.73 -1.13,2.6 -0.38,0.82 -0.77,1.63 -1.19,2.44 -0.08,0.15 -0.16,0.31 -0.25,0.46 -0.41,0.8 -0.83,1.6 -1.28,2.38 -0.09,0.17 -0.18,0.34 -0.28,0.5 -0.2,0.34 -0.42,0.66 -0.62,1 -0.37,0.59 -0.75,1.17 -1.13,1.75 0,0.01 0.01,0.02 0,0.03 -0.49,0.75 -1,1.49 -1.53,2.22 -0.46,0.64 -0.95,1.25 -1.44,1.87 -0.19,0.26 -0.36,0.53 -0.56,0.79 l -0.41,0.5 c -0.16,0.2 -0.33,0.39 -0.5,0.59 -0.55,0.67 -1.13,1.32 -1.72,1.97 -0.6,0.67 -1.23,1.35 -1.87,2 -0.16,0.16 -0.31,0.34 -0.47,0.5 -21.13,21.13 -52.26,24.49 -77.19,11.15 l 0.13,-0.18 c -3.71,-1.9 -7.26,-4.14 -10.63,-6.78 -0.54,-0.43 -1.06,-0.87 -1.59,-1.32 -0.51,-0.43 -1.03,-0.86 -1.53,-1.31 -0.09,-0.08 -0.19,-0.16 -0.28,-0.25 a 86.97,86.97 0 0 1 -2.41,-2.31 c -0.79,-0.8 -1.56,-1.59 -2.31,-2.41 -0.09,-0.09 -0.17,-0.19 -0.25,-0.28 -0.45,-0.5 -0.88,-1.02 -1.31,-1.53 -0.45,-0.53 -0.89,-1.05 -1.32,-1.59 a 65.831,65.831 0 0 1 -6.78,-10.63 l -0.19,0.13 c -13.33,-24.93 -9.97,-56.061 11.16,-77.191 0.16,-0.163 0.34,-0.308 0.5,-0.469 0.65,-0.64 1.33,-1.269 2,-1.875 0.65,-0.588 1.3,-1.162 1.97,-1.719 0.27,-0.227 0.54,-0.465 0.81,-0.687 0.35,-0.278 0.72,-0.512 1.06,-0.782 0.63,-0.483 1.24,-0.98 1.88,-1.437 0.74,-0.53 1.5,-1.036 2.25,-1.531 0.58,-0.383 1.16,-0.764 1.75,-1.125 0.45,-0.274 0.89,-0.551 1.34,-0.813 0.69,-0.395 1.37,-0.757 2.07,-1.125 a 61.343,61.343 0 0 1 3.37,-1.687 c 0.87,-0.397 1.72,-0.769 2.59,-1.125 0.16,-0.062 0.32,-0.096 0.47,-0.157 0.97,-0.384 1.93,-0.758 2.91,-1.093 0.56,-0.192 1.12,-0.356 1.69,-0.532 0.58,-0.181 1.16,-0.367 1.75,-0.531 0.88,-0.246 1.77,-0.48 2.65,-0.687 0.07,-0.017 0.15,-0.015 0.22,-0.032 0.42,-0.095 0.84,-0.193 1.25,-0.281 0.67,-0.141 1.36,-0.287 2.03,-0.406 0.09,-0.015 0.17,-0.017 0.25,-0.031 0.95,-0.164 1.92,-0.317 2.88,-0.438 a 65.183,65.183 0 0 1 9.06,-0.5 z"
     clip-path="url(#H)"
     transform="matrix(1,0.08088,0,1,8.6153846,40.328615)"
     filter="url(#I)"
     fill="#2d3335"
     id="path360" />
  <path
     d="m 56.625385,288.84462 -4.807,4.55 c -5.007,-5.31 -10.24,-10.7 -15.08,-16.13 l 4.491,-4.07 c 6.829,6.53 8.872,8.53 15.396,15.65 z"
     fill="url(#J)"
     id="path362"
     style="fill:url(#J)" />
  <path
     d="m 133.67538,196.07462 c -27.176,-27.18 -27.176,-71.251 0,-98.431 27.18,-27.180005 71.25,-27.180005 98.43,0 27.18,27.18 27.18,71.251 0,98.431 -27.18,27.18 -71.25,27.18 -98.43,0 z m 2.96,-2.96 c 26.09,26.1 67.41,27.08 93.5,0.99 26.1,-26.1 25.11,-67.416 -0.98,-93.509 -26.09,-26.092005 -67.41,-27.077005 -93.51,-0.984 -26.09,26.093 -25.11,67.413 0.99,93.503 z"
     fill="#2d3335"
     id="path386" />
  <path
     fill="#9eaaac"
     d="m 133.67538,196.07462 c -27.176,-27.18 -27.176,-71.251 0,-98.431 0.17,-0.166 0.33,-0.329 0.5,-0.493 -26.689,27.218 -26.526,70.924 0.49,97.934 27.01,27.02 70.72,27.18 97.93,0.49 -0.16,0.17 -0.32,0.33 -0.49,0.5 -27.18,27.18 -71.25,27.18 -98.43,0 z m 2.46,-96.955 c 0.17,-0.167 0.33,-0.327 0.5,-0.492 26.09,-26.093005 67.41,-25.109005 93.5,0.984 26.1,26.093 27.08,67.413 0.99,93.503 l -0.5,0.5 c 25.59,-26.12 24.46,-67.091 -1.47,-93.01901 -25.93,-25.926995 -66.9,-27.062995 -93.02,-1.47599 z"
     id="path388" />
  <path
     d="m 135.64538,194.10462 c 26.1,26.09 68.4,26.09 94.49,0 26.1,-26.1 26.1,-68.4 0,-94.493 -26.09,-26.093005 -68.39,-26.093005 -94.49,0 -26.09,26.093 -26.09,68.393 0,94.493 z"
     fill-opacity="0.476"
     fill="#d0e9f2"
     id="path390" />
  <path
     d="m 135.64538,194.10462 c 26.1,26.09 68.4,26.09 94.49,0 26.1,-26.1 26.1,-68.4 0,-94.493 -26.09,-26.093005 -68.39,-26.093005 -94.49,0 -26.09,26.093 -26.09,68.393 0,94.493 z"
     fill="url(#Q)"
     id="path392"
     style="fill:url(#Q)" />
  <path
     fill="url(#R)"
     d="m 124.66538,176.66462 -5.75,4.09 c 3.3,6.21 7.56,12.05 12.8,17.28 5.23,5.24 11.07,9.5 17.28,12.8 l 4.09,-5.75 c -5.92,-3.04 -11.49,-7.01 -16.45,-11.97 -4.96,-4.96 -8.93,-10.53 -11.97,-16.45 z"
     id="path394"
     style="fill:url(#R)" />
  <path
     fill="url(#S)"
     d="m 133.43538,196.31462 c 1.73,1.73 3.08,3.67 4.12,5.72 l -26.21,26.21 a 22.302,22.302 0 0 1 -5.718,-4.12 22.268,22.268 0 0 1 -4.121,-5.72 l 26.209,-26.21 c 2.05,1.04 3.99,2.39 5.72,4.12 z"
     id="path396"
     style="fill:url(#S)" />
  <path
     d="m 124.88538,220.61462 -66.070995,66.07 c -3.984,-2.19 -5.832,-3 -9.29,-6.46 -3.458,-3.46 -4.267,-5.3 -6.459,-9.29 l 66.069995,-66.07 c 5.06,3.75 12.12,10.4 15.75,15.75 z"
     fill="url(#T)"
     id="path398"
     style="fill:url(#T)" />
  <path
     d="m 114.39538,215.50462 c 3.46,3.46 7.43,6.66 8.52,11.02 l -64.100995,64.1 c -6.517,-5.16 -14.555,-12.79 -19.686,-19.69 l 64.099995,-64.1 c 3.491,0.23 7.657,5.16 11.117,8.62 z"
     fill="url(#U)"
     id="path400"
     style="fill:url(#U)" />
  <path
     opacity="0.596"
     d="m 114.14538,215.74462 c 3.46,3.46 7.68,6.42 8.77,10.78 l -64.100995,64.1 c -7.877,-6.91 -11.798,-10.63 -19.686,-19.69 l 64.099995,-64.1 c 3.491,0.23 7.417,5.45 10.877,8.91 z"
     fill="url(#V)"
     id="path402"
     style="fill:url(#V)" />
  <path
     opacity="0.604"
     d="m 139.78538,98.43461 c 40.66,-32.172995 78.13,-12.727995 77.78,5.303 -0.35,18.031 -56.57,70.35701 -76.37,66.11701 -19.8,-4.24 -25.45,-53.389 -1.41,-71.42001 z"
     fill="url(#W)"
     id="path404"
     style="fill:url(#W)" />
  <text
     opacity="0.461"
     font-weight="bold"
     xml:space="preserve"
     transform="rotate(-8.9)"
     font-size="19.8px"
     y="131.16245"
     x="98.853882"
     font-family="Monospace"
     fill="url(#X)"
     id="text412"
     style="fill:url(#X)"><tspan
       y="131.16245"
       x="98.853882"
       id="tspan406"
       style="fill:url(#X)">01011001</tspan><tspan
       y="155.91245"
       x="98.853882"
       id="tspan408"
       style="fill:url(#X)">00110101</tspan><tspan
       y="180.66245"
       x="98.853882"
       id="tspan410"
       style="fill:url(#X)">10010011</tspan></text>
  <text
     font-weight="bold"
     xml:space="preserve"
     transform="rotate(-8.9)"
     font-size="19.8px"
     y="129.87643"
     x="98.424881"
     font-family="Monospace"
     fill="url(#Y)"
     id="text420"
     style="fill:url(#Y)"><tspan
       y="129.87643"
       x="98.424881"
       id="tspan414"
       style="fill:url(#Y)">01011001</tspan><tspan
       y="154.62645"
       x="98.424881"
       id="tspan416"
       style="fill:url(#Y)">00110101</tspan><tspan
       y="179.37645"
       x="98.424881"
       id="tspan418"
       style="fill:url(#Y)">10010011</tspan></text>
  <path
     opacity="0.765"
     d="m 228.07538,190.47462 c -26.79,21.98 -41.81,21.01 -38.07,13.14 3.73,-7.87 42.32,-41.66 51.45,-43.75 9.12,-2.093 2.27,18.04 -13.38,30.61 z"
     fill="url(#Z)"
     id="path422"
     style="fill:url(#Z)" />
  <g
     id="layer1">
    <text
       xml:space="preserve"
       id="text15411"
       style="font-style:normal;font-variant:normal;font-weight:normal;font-stretch:normal;font-size:33.8829px;line-height:1.65;font-family:sans-serif;-inkscape-font-specification:sans-serif;white-space:pre;shape-inside:url(#rect15413)"
       transform="matrix(1.9567367,0,0,3.5298163,-304.4421,-152.33715)"><tspan
         x="292.92383"
         y="103.21594"
         id="tspan136584">OpenStreetMap</tspan></text>
  </g>
</svg>
