<?xml version="1.0" encoding="UTF-8" standalone="no"?>
<svg
   width="800"
   height="404"
   viewBox="-50 -50 975.60976 504"
   fill="none"
   version="1.1"
   id="svg20"
   sodipodi:docname="vitejs.svg"
   inkscape:version="1.1 (c68e22c387, 2021-05-23)"
   xmlns:inkscape="http://www.inkscape.org/namespaces/inkscape"
   xmlns:sodipodi="http://sodipodi.sourceforge.net/DTD/sodipodi-0.dtd"
   xmlns="http://www.w3.org/2000/svg"
   xmlns:svg="http://www.w3.org/2000/svg">
  <sodipodi:namedview
     id="namedview22"
     pagecolor="#ffffff"
     bordercolor="#666666"
     borderopacity="1.0"
     inkscape:pageshadow="2"
     inkscape:pageopacity="0.0"
     inkscape:pagecheckerboard="0"
     showgrid="false"
     inkscape:zoom="0.72810995"
     inkscape:cx="153.82292"
     inkscape:cy="199.83246"
     inkscape:window-width="1920"
     inkscape:window-height="1017"
     inkscape:window-x="3832"
     inkscape:window-y="-8"
     inkscape:window-maximized="1"
     inkscape:current-layer="layer1" />
  <path
     d="M 399.641,59.5246 215.643,388.545 c -3.799,6.793 -13.559,6.833 -17.415,0.073 L 10.5817,59.5563 C 6.38087,52.1896 12.6802,43.2665 21.0281,44.7586 L 205.223,77.6824 c 1.175,0.21 2.378,0.208 3.553,-0.0061 L 389.119,44.8058 c 8.32,-1.5164 14.649,7.3376 10.522,14.7188 z"
     fill="url(#paint0_linear)"
     id="path2" />
  <path
     d="M 292.965,1.5744 156.801,28.2552 c -2.238,0.4385 -3.895,2.3351 -4.03,4.6112 L 144.395,174.33 c -0.197,3.332 2.863,5.918 6.115,5.168 l 37.91,-8.749 c 3.547,-0.818 6.752,2.306 6.023,5.873 l -11.263,55.153 c -0.758,3.712 2.727,6.886 6.352,5.785 l 23.415,-7.114 c 3.63,-1.102 7.118,2.081 6.35,5.796 l -17.899,86.633 c -1.12,5.419 6.088,8.374 9.094,3.728 L 212.5,323.5 323.454,102.072 c 1.858,-3.7075 -1.346,-7.935 -5.418,-7.1492 l -39.022,7.5312 c -3.667,0.707 -6.787,-2.708 -5.752,-6.2957 L 298.731,7.86689 c 1.036,-3.59375 -2.095,-7.011709 -5.766,-6.29249 z"
     fill="url(#paint1_linear)"
     id="path4" />
  <defs
     id="defs18">
    <rect
       x="388.67756"
       y="124.98112"
       width="376.31679"
       height="168.93053"
       id="rect90780" />
    <rect
       x="420.2662"
       y="133.22164"
       width="333.7408"
       height="171.67737"
       id="rect55942" />
    <rect
       x="556.23467"
       y="130.4748"
       width="214.25335"
       height="166.18369"
       id="rect44382" />
    <rect
       x="580.95621"
       y="178.54446"
       width="291.16482"
       height="81.031717"
       id="rect30950" />
    <rect
       x="420.2662"
       y="107.12668"
       width="333.7408"
       height="171.67737"
       id="rect27402" />
    <rect
       x="409.27884"
       y="118.11403"
       width="300.77875"
       height="162.06343"
       id="rect4295" />
    <linearGradient
       id="paint0_linear"
       x1="6.0001702"
       y1="32.999901"
       x2="235"
       y2="344"
       gradientUnits="userSpaceOnUse">
      <stop
         stop-color="#41D1FF"
         id="stop6" />
      <stop
         offset="1"
         stop-color="#BD34FE"
         id="stop8" />
    </linearGradient>
    <linearGradient
       id="paint1_linear"
       x1="194.651"
       y1="8.8181801"
       x2="236.076"
       y2="292.98901"
       gradientUnits="userSpaceOnUse">
      <stop
         stop-color="#FFEA83"
         id="stop11" />
      <stop
         offset="0.0833333"
         stop-color="#FFDD35"
         id="stop13" />
      <stop
         offset="1"
         stop-color="#FFA800"
         id="stop15" />
    </linearGradient>
  </defs>
  <text
     xml:space="preserve"
     transform="matrix(1.2475248,0,0,1.2475248,-61.205021,-50)"
     id="text4293"
     style="font-size:40px;line-height:1.25;font-family:sans-serif;-inkscape-font-specification:sans-serif;white-space:pre;shape-inside:url(#rect4295)"><tspan
       x="409.2793"
       y="153.50391"
       id="tspan111969">V</tspan></text>
  <g
     inkscape:groupmode="layer"
     id="layer1"
     inkscape:label="name"
     style="display:inline">
    <text
       xml:space="preserve"
       transform="matrix(1.8814835,0,0,1.5934426,-320.07976,-54.54963)"
       id="text90778"
       style="font-size:96px;line-height:1.25;font-family:sans-serif;-inkscape-font-specification:sans-serif;white-space:pre;shape-inside:url(#rect90780);fill:#000000"><tspan
         x="388.67773"
         y="209.91797"
         id="tspan111973"><tspan
           style="-inkscape-font-specification:'sans-serif, Normal'"
           id="tspan111971">Vite</tspan></tspan></text>
  </g>
</svg>
